<svg width="42" height="42" viewBox="0 0 42 42" fill="none" xmlns="http://www.w3.org/2000/svg">
<path d="M15.0938 30.1875H26.9062V36.9257C26.9062 38.2798 25.8473 39.375 24.545 39.375H17.4581C16.1527 39.375 15.0969 38.2766 15.0969 36.9257V30.1875H15.0938Z" fill="#020140"/>
<path d="M26.9062 26.451V27.2344H15.0938V27.0125C15.0938 24.7073 13.6936 22.7616 12.1773 21.0252C10.9276 19.594 9.84375 17.3773 9.84375 13.7812C9.84375 6.5625 16.0781 2.625 21 2.625C25.9219 2.625 31.8281 6.5625 31.8281 13.7812C31.8281 17.2459 30.5622 19.5713 29.2099 21.1506C27.9132 22.6648 26.9062 24.4574 26.9062 26.451Z" stroke="#020140" stroke-width="0.763637"/>
<path d="M19.2332 26.9062V14.3709C19.2332 13.7472 18.4449 13.4752 18.0603 13.9663L17.2372 15.0172C16.8998 15.448 17.2067 16.0781 17.7538 16.0781H24.2462C24.7933 16.0781 25.1002 15.448 24.7628 15.0172L23.9397 13.9663C23.5551 13.4752 22.7668 13.7472 22.7668 14.3709V26.9062" stroke="#020140" stroke-width="0.763637"/>
</svg>
