<svg width="552" height="316" viewBox="0 0 552 316" fill="none" xmlns="http://www.w3.org/2000/svg">
<path d="M119.932 249.429C116.286 247.573 113.786 244.734 112.076 241.186C110.366 244.734 107.85 247.59 104.204 249.445C107.85 251.3 110.366 254.139 112.076 257.688C113.786 254.139 116.302 251.284 119.932 249.429Z" fill="#DEE9F5" stroke="#020140" stroke-width="0.44373" stroke-linecap="round" stroke-linejoin="round"/>
<path d="M94.9581 242.715C97.1441 242.715 98.9161 240.943 98.9161 238.757C98.9161 236.571 97.1441 234.799 94.9581 234.799C92.7721 234.799 91 236.571 91 238.757C91 240.943 92.7721 242.715 94.9581 242.715Z" fill="#DEE9F5"/>
<path d="M101.933 232.828C103.266 232.828 104.347 231.747 104.347 230.414C104.347 229.081 103.266 228 101.933 228C100.6 228 99.5194 229.081 99.5194 230.414C99.5194 231.747 100.6 232.828 101.933 232.828Z" fill="#DEE9F5"/>
<path d="M441.136 80.1748C438.367 80.1748 436.122 82.4197 436.122 85.189C436.122 87.9582 438.367 90.2031 441.136 90.2031C443.905 90.2031 446.15 87.9582 446.15 85.189C446.15 82.4197 443.905 80.1748 441.136 80.1748Z" fill="#B8D3EE"/>
<path d="M474.035 44.3115C472.27 44.3115 470.84 45.7418 470.84 47.5063C470.84 49.2708 472.27 50.7012 474.035 50.7012C475.799 50.7012 477.229 49.2708 477.229 47.5063C477.229 45.7418 475.799 44.3115 474.035 44.3115Z" fill="#DEE9F5"/>
<path d="M496.133 41.002C493.785 41.002 491.882 42.9052 491.882 45.253C491.882 47.6007 493.785 49.5039 496.133 49.5039C498.481 49.5039 500.384 47.6007 500.384 45.253C500.384 42.9052 498.481 41.002 496.133 41.002Z" fill="#B8D3EE"/>
<path d="M442.227 61.3847C448.502 64.5625 452.809 69.4503 455.761 75.5801C458.713 69.4664 463.036 64.5464 469.311 61.3686C463.036 58.1907 458.713 53.303 455.761 47.1732C452.809 53.2869 448.502 58.2069 442.227 61.3847Z" fill="#DEE9F5" stroke="#020140" stroke-width="0.44373" stroke-linecap="round" stroke-linejoin="round"/>
<path d="M478.17 69.4914C481.816 71.3465 484.316 74.1855 486.026 77.7344C487.736 74.1855 490.252 71.3303 493.898 69.4752C490.252 67.6202 487.736 64.7811 486.026 61.2323C484.316 64.7811 481.8 67.6363 478.17 69.4914Z" fill="#DEE9F5" stroke="#020140" stroke-width="0.44373" stroke-linecap="round" stroke-linejoin="round"/>
<path d="M77.7485 119.431C80.5178 119.431 82.7627 117.186 82.7627 114.416C82.7627 111.647 80.5178 109.402 77.7485 109.402C74.9793 109.402 72.7344 111.647 72.7344 114.416C72.7344 117.186 74.9793 119.431 77.7485 119.431Z" fill="#B8D3EE"/>
<path d="M80.3482 102.048C82.1126 102.048 83.543 100.618 83.543 98.8531C83.543 97.0886 82.1126 95.6582 80.3482 95.6582C78.5837 95.6582 77.1533 97.0886 77.1533 98.8531C77.1533 100.618 78.5837 102.048 80.3482 102.048Z" fill="#DEE9F5"/>
<path d="M58.2509 105.357C60.5987 105.357 62.5019 103.454 62.5019 101.106C62.5019 98.7587 60.5987 96.8555 58.2509 96.8555C55.9032 96.8555 54 98.7587 54 101.106C54 103.454 55.9032 105.357 58.2509 105.357Z" fill="#B8D3EE"/>
<path d="M112.156 84.9747C105.881 81.7968 101.574 76.9091 98.6224 70.7793C95.6704 76.893 91.3473 81.813 85.0723 84.9908C91.3473 88.1686 95.6704 93.0564 98.6224 99.1862C101.574 93.0725 105.881 88.1525 112.156 84.9747Z" fill="#DEE9F5" stroke="#020140" stroke-width="0.44373" stroke-linecap="round" stroke-linejoin="round"/>
<path d="M85.0872 50.243C81.4416 48.3879 78.9412 45.5488 77.2313 42C75.5214 45.5488 73.005 48.4041 69.3594 50.2591C73.005 52.1142 75.5214 54.9533 77.2313 58.5021C78.9412 54.9533 81.4577 52.0981 85.0872 50.243Z" fill="#DEE9F5" stroke="#020140" stroke-width="0.44373" stroke-linecap="round" stroke-linejoin="round"/>
<path d="M248.773 13.5557C285.983 7.87988 321.478 14.0323 352.19 29.1289H352.191C353.849 29.9367 355.494 30.78 357.122 31.6523L356.116 39.7383L355.468 44.9453C354.301 44.231 353.125 43.5287 351.942 42.8457L350.689 42.1309C320.773 25.1755 285.206 17.671 247.588 22.9941C175.659 33.1499 128.435 86.2446 127.745 153.648C126.343 153.556 125.575 153.509 124.167 153.421C124.134 151.11 124.153 148.81 124.224 146.534V146.533C124.254 145.274 124.314 144.02 124.38 142.776C124.428 141.843 124.495 140.908 124.567 139.979V139.977C124.598 139.482 124.645 138.984 124.682 138.479C124.772 137.476 124.862 136.481 124.971 135.493L124.972 135.491C125.02 134.996 125.085 134.51 125.14 134.009C130.38 89.6462 155.994 52.6524 195.228 31.2627C196.416 30.6172 197.61 29.9842 198.816 29.3691C205.661 25.8774 212.911 22.8436 220.51 20.3105C221.403 20.0149 222.301 19.7198 223.205 19.4365C231.347 16.8913 239.876 14.9189 248.773 13.5557Z" fill="white" stroke="#020140" stroke-width="0.30184"/>
<mask id="path-15-inside-1_1_3465" fill="white">
<path d="M346.993 109.838L346.492 113.823L343.878 134.71C343.039 134.963 342.152 135.229 341.186 135.513C340.914 134.595 340.637 133.678 340.335 132.778C340.335 132.76 340.329 132.754 340.323 132.742C340.148 132.199 339.967 131.655 339.786 131.112C339.707 130.895 339.635 130.683 339.55 130.46C339.435 130.128 339.321 129.808 339.2 129.476C339.128 129.271 339.055 129.065 338.977 128.86C338.765 128.305 338.566 127.749 338.343 127.2C338.282 127.037 338.216 126.868 338.156 126.711C337.968 126.234 337.775 125.775 337.576 125.305C337.238 124.49 336.894 123.675 336.526 122.872C336.32 122.407 336.109 121.942 335.886 121.477C335.825 121.326 335.753 121.181 335.674 121.036C335.505 120.674 335.33 120.318 335.161 119.968C335.047 119.739 334.932 119.509 334.817 119.286C334.552 118.755 334.286 118.229 334.008 117.698C333.519 116.775 333.018 115.851 332.505 114.945C331.938 113.937 331.346 112.947 330.736 111.975C330.525 111.625 330.308 111.275 330.084 110.931C329.354 109.778 328.599 108.649 327.821 107.544C327.591 107.212 327.362 106.892 327.132 106.566C327.024 106.421 326.915 106.271 326.806 106.126C326.631 105.878 326.45 105.637 326.269 105.389C326.173 105.268 326.088 105.136 325.991 105.021C325.774 104.731 325.563 104.447 325.34 104.164C325.261 104.055 325.189 103.952 325.11 103.862C324.905 103.602 324.7 103.337 324.494 103.083C324.241 102.769 323.993 102.449 323.734 102.135C323.42 101.743 323.094 101.357 322.768 100.97C322.762 100.97 322.756 100.964 322.756 100.958C322.514 100.68 322.285 100.403 322.037 100.119C320.939 98.8453 319.804 97.6077 318.633 96.3943C318.276 96.0261 317.914 95.6639 317.558 95.2956C317.244 94.9817 316.918 94.6678 316.604 94.3539C316.393 94.1486 316.188 93.9555 315.976 93.7502C315.717 93.4967 315.445 93.2431 315.174 92.9956C314.866 92.6998 314.546 92.404 314.226 92.1203C313.87 91.7943 313.507 91.4743 313.145 91.1484C313.073 91.088 313.006 91.0276 312.934 90.9673C312.644 90.7137 312.366 90.4722 312.071 90.2247C311.962 90.1281 311.847 90.0436 311.739 89.9531C311.401 89.6693 311.075 89.3917 310.737 89.114C310.374 88.8242 310.024 88.5405 309.662 88.2507C309.571 88.1722 309.481 88.1058 309.39 88.0273C309.076 87.7798 308.756 87.5323 308.443 87.2969C308.382 87.2425 308.31 87.1882 308.243 87.1399C307.996 86.9588 307.748 86.7656 307.501 86.5845C307.235 86.3853 306.97 86.1921 306.704 85.9929C306.348 85.7334 305.992 85.4798 305.641 85.2263C305.291 84.9788 304.941 84.7313 304.585 84.4898C304.162 84.2 303.74 83.9102 303.311 83.6326C301.12 82.1717 298.856 80.8073 296.526 79.5336C296.019 79.2498 295.506 78.9782 294.987 78.7126C294.528 78.4651 294.069 78.2296 293.61 78.0002C293.447 77.9157 293.278 77.8372 293.115 77.7527C292.753 77.5777 292.397 77.3965 292.041 77.2275C291.914 77.1671 291.787 77.1068 291.654 77.0525C291.304 76.8834 290.96 76.7144 290.61 76.5574C290.411 76.4608 290.211 76.3763 290.012 76.2918C289.65 76.1228 289.294 75.9598 288.938 75.8089C288.811 75.7545 288.678 75.6881 288.545 75.6398C288.038 75.4165 287.525 75.2052 287.012 74.9939C286.475 74.7645 285.925 74.5532 285.37 74.3359C284.821 74.1186 284.259 73.9073 283.704 73.702C283.173 73.5028 282.635 73.3096 282.092 73.1285C282.02 73.1044 281.953 73.0802 281.881 73.0561C281.368 72.875 280.854 72.6939 280.329 72.5309C279.768 72.3438 279.194 72.1627 278.627 71.9876C277.341 71.5892 276.037 71.2149 274.721 70.8708C274.286 70.75 273.846 70.6414 273.405 70.5267C271.666 70.0981 269.916 69.7057 268.135 69.3616C264.537 68.6613 260.848 68.1361 257.1 67.8162C256.478 67.7618 255.85 67.7135 255.228 67.6773C254.6 67.6351 253.973 67.5928 253.339 67.5626C252.415 67.5143 251.485 67.4721 250.544 67.4479H250.465C249.523 67.4238 248.576 67.4117 247.622 67.4117C246.982 67.4117 246.336 67.4177 245.696 67.4238H245.69C245.05 67.4358 244.404 67.454 243.758 67.4721C243.432 67.4841 243.106 67.4962 242.78 67.5083C242.454 67.5264 242.134 67.5385 241.808 67.5566C241.024 67.5928 240.245 67.6471 239.472 67.6954C238.374 67.7739 237.287 67.8584 236.212 67.9671C236.104 67.9852 235.995 67.9912 235.886 67.9973C235.548 68.0335 235.21 68.0757 234.872 68.112C234.112 68.1904 233.357 68.281 232.608 68.3836C231.86 68.4862 231.111 68.5889 230.375 68.6975C229.632 68.8062 228.89 68.9269 228.159 69.0597C227.815 69.1141 227.477 69.1805 227.133 69.2348C226.747 69.3133 226.36 69.3857 225.974 69.4582C225.25 69.597 224.531 69.7419 223.813 69.8989C222.738 70.1343 221.67 70.3878 220.613 70.6474C219.919 70.8225 219.213 71.0036 218.519 71.1907C217.136 71.571 215.754 71.9755 214.401 72.4041C213.725 72.6214 213.049 72.8388 212.385 73.0682C211.54 73.3519 210.707 73.6537 209.874 73.9677C209.385 74.1427 208.896 74.3299 208.419 74.517C208.093 74.6438 207.767 74.7705 207.447 74.9034C206.801 75.1569 206.161 75.4286 205.527 75.6942C205.521 75.7002 205.515 75.7002 205.509 75.7062C205.244 75.8209 204.966 75.9417 204.694 76.0624C204.018 76.3522 203.342 76.6661 202.678 76.974C202.455 77.0766 202.237 77.1853 202.014 77.2819C201.549 77.4992 201.09 77.7165 200.638 77.9459C200.39 78.0727 200.143 78.1934 199.895 78.3202C199.515 78.5073 199.134 78.7065 198.76 78.9057C198.368 79.111 197.981 79.3162 197.589 79.5275C197.154 79.763 196.72 80.0105 196.285 80.2519C195.989 80.4149 195.693 80.584 195.404 80.753C194.987 80.9945 194.577 81.2359 194.166 81.4774C193.701 81.7551 193.242 82.0328 192.784 82.3226C192.434 82.5399 192.089 82.7572 191.739 82.9745C188.642 84.9486 185.697 87.0856 182.889 89.3735C182.654 89.5607 182.419 89.7539 182.195 89.947C181.591 90.4481 181 90.9552 180.408 91.4683C180.173 91.6736 179.937 91.8788 179.714 92.0841C179.322 92.4342 178.935 92.7783 178.549 93.1405C178.495 93.1888 178.434 93.2431 178.386 93.2914C177.963 93.6778 177.547 94.0702 177.13 94.4686C176.798 94.7825 176.478 95.1025 176.152 95.4224C175.887 95.6759 175.621 95.9416 175.368 96.2072C174.891 96.6841 174.438 97.155 173.979 97.6379C173.683 97.9458 173.381 98.2657 173.092 98.5796C172.947 98.7426 172.796 98.9056 172.651 99.0686C172.234 99.5274 171.812 99.9922 171.401 100.463C171.003 100.916 170.611 101.369 170.224 101.833C170.218 101.846 170.212 101.852 170.2 101.864C169.439 102.763 168.697 103.675 167.979 104.598C167.966 104.604 167.96 104.616 167.954 104.622C167.725 104.912 167.502 105.196 167.284 105.498C166.167 106.947 165.093 108.438 164.067 109.959C163.723 110.448 163.397 110.943 163.071 111.438C162.708 111.993 162.346 112.555 161.996 113.116C161.646 113.678 161.284 114.245 160.952 114.819C160.891 114.915 160.825 115.024 160.771 115.12C160.487 115.597 160.203 116.068 159.925 116.551C159.593 117.137 159.267 117.716 158.941 118.302C158.609 118.893 158.296 119.479 157.994 120.077C157.68 120.674 157.366 121.272 157.064 121.882C156.823 122.359 156.581 122.848 156.34 123.337C156.291 123.451 156.231 123.566 156.177 123.687C156.068 123.91 155.965 124.127 155.869 124.357C155.706 124.689 155.555 125.021 155.398 125.359C155.337 125.498 155.271 125.63 155.217 125.763C155.018 126.198 154.818 126.645 154.625 127.085C154.547 127.242 154.486 127.399 154.414 127.568C154.172 128.124 153.937 128.691 153.702 129.253V129.265C153.472 129.814 153.243 130.369 153.037 130.919C152.947 131.136 152.868 131.341 152.784 131.565C152.627 131.969 152.47 132.38 152.319 132.796C152.259 132.947 152.204 133.092 152.156 133.249C152.023 133.599 151.897 133.943 151.776 134.299C151.552 134.915 151.341 135.537 151.13 136.165C151.088 136.291 151.039 136.424 150.997 136.551C150.913 136.799 150.84 137.04 150.762 137.288C150.587 137.831 150.405 138.386 150.236 138.936C150.037 139.582 149.844 140.24 149.651 140.898V140.916C149.476 141.513 149.307 142.105 149.144 142.709C149.095 142.878 149.047 143.053 149.011 143.222C148.854 143.783 148.715 144.363 148.57 144.93C148.401 145.594 148.238 146.258 148.087 146.94V146.965C147.791 148.226 147.52 149.5 147.266 150.78C146.451 150.731 145.842 150.689 145.232 150.653C145.159 150.647 145.093 150.647 145.027 150.641C144.827 150.623 144.634 150.611 144.423 150.605C144.338 150.599 144.266 150.593 144.181 150.587C144.019 150.575 143.843 150.568 143.662 150.556C143.566 150.55 143.481 150.544 143.385 150.538C150.75 100.723 187.381 61.9967 242.968 57.8132C247.266 57.4872 251.51 57.3906 255.681 57.5053C256.822 57.5355 257.957 57.5898 259.086 57.6442C259.84 57.6804 260.589 57.7347 261.337 57.7891C262.086 57.8434 262.835 57.9098 263.571 57.9762C264.688 58.0788 265.793 58.1996 266.897 58.3324C272.735 59.0507 278.416 60.1857 283.897 61.7371C284.392 61.876 284.881 62.0148 285.364 62.1537C285.853 62.2985 286.342 62.4434 286.819 62.5943C287.634 62.8479 288.455 63.1135 289.258 63.3852C289.885 63.5964 290.513 63.8077 291.135 64.0311C291.612 64.2001 292.083 64.3752 292.56 64.5503C293.031 64.7253 293.495 64.9064 293.966 65.0875C294.166 65.166 294.359 65.2385 294.558 65.3169C294.824 65.4256 295.095 65.5343 295.367 65.6429C296.405 66.0595 297.431 66.5001 298.458 66.9469C298.482 66.9589 298.5 66.965 298.53 66.9771C299.532 67.4177 300.522 67.8765 301.506 68.3474C301.609 68.3957 301.724 68.45 301.82 68.4983C302.237 68.7036 302.641 68.8967 303.058 69.108C303.112 69.1322 303.172 69.1563 303.227 69.1926C303.716 69.434 304.199 69.6815 304.676 69.9351C305.183 70.2007 305.684 70.4603 306.185 70.7319C306.68 70.9976 307.175 71.2752 307.67 71.5469C308.72 72.1325 309.753 72.7361 310.779 73.3579C311.141 73.5753 311.491 73.7926 311.847 74.0099C312.874 74.6498 313.882 75.3018 314.884 75.9719C315.355 76.2797 315.819 76.5997 316.278 76.9196C316.743 77.2456 317.202 77.5656 317.661 77.8976C318.12 78.2236 318.572 78.5556 319.025 78.8937C319.484 79.2257 319.931 79.5638 320.377 79.9079C320.764 80.1976 321.144 80.4995 321.518 80.7953C322.043 81.2058 322.563 81.6163 323.07 82.0388C323.486 82.389 323.909 82.727 324.319 83.0832C324.808 83.4877 325.291 83.9042 325.768 84.3328C326.13 84.6467 326.499 84.9727 326.861 85.3047C327.265 85.6669 327.67 86.0412 328.062 86.4095C328.092 86.4276 328.11 86.4517 328.135 86.4698C328.436 86.7536 328.738 87.0313 329.028 87.315C330.012 88.2507 330.978 89.2105 331.932 90.1885C332.227 90.4903 332.529 90.7982 332.819 91.1061C333.145 91.4562 333.465 91.7943 333.785 92.1444C333.948 92.3195 334.123 92.5006 334.28 92.6757C334.515 92.9292 334.745 93.1828 334.962 93.4423C336.453 95.1085 337.896 96.8229 339.278 98.5857C339.508 98.8754 339.731 99.1652 339.949 99.455C340.208 99.787 340.456 100.113 340.709 100.457C340.951 100.771 341.186 101.097 341.428 101.423C341.669 101.737 341.904 102.069 342.128 102.407C342.261 102.582 342.393 102.769 342.52 102.95C342.575 103.029 342.629 103.107 342.683 103.186C342.991 103.614 343.293 104.055 343.595 104.496C343.891 104.936 344.198 105.389 344.488 105.83C344.736 106.204 344.983 106.584 345.225 106.959C345.388 107.218 345.557 107.478 345.72 107.737C345.973 108.142 346.233 108.552 346.486 108.975C346.661 109.253 346.837 109.542 347 109.832L346.993 109.838Z"/>
</mask>
<path d="M346.993 109.838L346.492 113.823L343.878 134.71C343.039 134.963 342.152 135.229 341.186 135.513C340.914 134.595 340.637 133.678 340.335 132.778C340.335 132.76 340.329 132.754 340.323 132.742C340.148 132.199 339.967 131.655 339.786 131.112C339.707 130.895 339.635 130.683 339.55 130.46C339.435 130.128 339.321 129.808 339.2 129.476C339.128 129.271 339.055 129.065 338.977 128.86C338.765 128.305 338.566 127.749 338.343 127.2C338.282 127.037 338.216 126.868 338.156 126.711C337.968 126.234 337.775 125.775 337.576 125.305C337.238 124.49 336.894 123.675 336.526 122.872C336.32 122.407 336.109 121.942 335.886 121.477C335.825 121.326 335.753 121.181 335.674 121.036C335.505 120.674 335.33 120.318 335.161 119.968C335.047 119.739 334.932 119.509 334.817 119.286C334.552 118.755 334.286 118.229 334.008 117.698C333.519 116.775 333.018 115.851 332.505 114.945C331.938 113.937 331.346 112.947 330.736 111.975C330.525 111.625 330.308 111.275 330.084 110.931C329.354 109.778 328.599 108.649 327.821 107.544C327.591 107.212 327.362 106.892 327.132 106.566C327.024 106.421 326.915 106.271 326.806 106.126C326.631 105.878 326.45 105.637 326.269 105.389C326.173 105.268 326.088 105.136 325.991 105.021C325.774 104.731 325.563 104.447 325.34 104.164C325.261 104.055 325.189 103.952 325.11 103.862C324.905 103.602 324.7 103.337 324.494 103.083C324.241 102.769 323.993 102.449 323.734 102.135C323.42 101.743 323.094 101.357 322.768 100.97C322.762 100.97 322.756 100.964 322.756 100.958C322.514 100.68 322.285 100.403 322.037 100.119C320.939 98.8453 319.804 97.6077 318.633 96.3943C318.276 96.0261 317.914 95.6639 317.558 95.2956C317.244 94.9817 316.918 94.6678 316.604 94.3539C316.393 94.1486 316.188 93.9555 315.976 93.7502C315.717 93.4967 315.445 93.2431 315.174 92.9956C314.866 92.6998 314.546 92.404 314.226 92.1203C313.87 91.7943 313.507 91.4743 313.145 91.1484C313.073 91.088 313.006 91.0276 312.934 90.9673C312.644 90.7137 312.366 90.4722 312.071 90.2247C311.962 90.1281 311.847 90.0436 311.739 89.9531C311.401 89.6693 311.075 89.3917 310.737 89.114C310.374 88.8242 310.024 88.5405 309.662 88.2507C309.571 88.1722 309.481 88.1058 309.39 88.0273C309.076 87.7798 308.756 87.5323 308.443 87.2969C308.382 87.2425 308.31 87.1882 308.243 87.1399C307.996 86.9588 307.748 86.7656 307.501 86.5845C307.235 86.3853 306.97 86.1921 306.704 85.9929C306.348 85.7334 305.992 85.4798 305.641 85.2263C305.291 84.9788 304.941 84.7313 304.585 84.4898C304.162 84.2 303.74 83.9102 303.311 83.6326C301.12 82.1717 298.856 80.8073 296.526 79.5336C296.019 79.2498 295.506 78.9782 294.987 78.7126C294.528 78.4651 294.069 78.2296 293.61 78.0002C293.447 77.9157 293.278 77.8372 293.115 77.7527C292.753 77.5777 292.397 77.3965 292.041 77.2275C291.914 77.1671 291.787 77.1068 291.654 77.0525C291.304 76.8834 290.96 76.7144 290.61 76.5574C290.411 76.4608 290.211 76.3763 290.012 76.2918C289.65 76.1228 289.294 75.9598 288.938 75.8089C288.811 75.7545 288.678 75.6881 288.545 75.6398C288.038 75.4165 287.525 75.2052 287.012 74.9939C286.475 74.7645 285.925 74.5532 285.37 74.3359C284.821 74.1186 284.259 73.9073 283.704 73.702C283.173 73.5028 282.635 73.3096 282.092 73.1285C282.02 73.1044 281.953 73.0802 281.881 73.0561C281.368 72.875 280.854 72.6939 280.329 72.5309C279.768 72.3438 279.194 72.1627 278.627 71.9876C277.341 71.5892 276.037 71.2149 274.721 70.8708C274.286 70.75 273.846 70.6414 273.405 70.5267C271.666 70.0981 269.916 69.7057 268.135 69.3616C264.537 68.6613 260.848 68.1361 257.1 67.8162C256.478 67.7618 255.85 67.7135 255.228 67.6773C254.6 67.6351 253.973 67.5928 253.339 67.5626C252.415 67.5143 251.485 67.4721 250.544 67.4479H250.465C249.523 67.4238 248.576 67.4117 247.622 67.4117C246.982 67.4117 246.336 67.4177 245.696 67.4238H245.69C245.05 67.4358 244.404 67.454 243.758 67.4721C243.432 67.4841 243.106 67.4962 242.78 67.5083C242.454 67.5264 242.134 67.5385 241.808 67.5566C241.024 67.5928 240.245 67.6471 239.472 67.6954C238.374 67.7739 237.287 67.8584 236.212 67.9671C236.104 67.9852 235.995 67.9912 235.886 67.9973C235.548 68.0335 235.21 68.0757 234.872 68.112C234.112 68.1904 233.357 68.281 232.608 68.3836C231.86 68.4862 231.111 68.5889 230.375 68.6975C229.632 68.8062 228.89 68.9269 228.159 69.0597C227.815 69.1141 227.477 69.1805 227.133 69.2348C226.747 69.3133 226.36 69.3857 225.974 69.4582C225.25 69.597 224.531 69.7419 223.813 69.8989C222.738 70.1343 221.67 70.3878 220.613 70.6474C219.919 70.8225 219.213 71.0036 218.519 71.1907C217.136 71.571 215.754 71.9755 214.401 72.4041C213.725 72.6214 213.049 72.8388 212.385 73.0682C211.54 73.3519 210.707 73.6537 209.874 73.9677C209.385 74.1427 208.896 74.3299 208.419 74.517C208.093 74.6438 207.767 74.7705 207.447 74.9034C206.801 75.1569 206.161 75.4286 205.527 75.6942C205.521 75.7002 205.515 75.7002 205.509 75.7062C205.244 75.8209 204.966 75.9417 204.694 76.0624C204.018 76.3522 203.342 76.6661 202.678 76.974C202.455 77.0766 202.237 77.1853 202.014 77.2819C201.549 77.4992 201.09 77.7165 200.638 77.9459C200.39 78.0727 200.143 78.1934 199.895 78.3202C199.515 78.5073 199.134 78.7065 198.76 78.9057C198.368 79.111 197.981 79.3162 197.589 79.5275C197.154 79.763 196.72 80.0105 196.285 80.2519C195.989 80.4149 195.693 80.584 195.404 80.753C194.987 80.9945 194.577 81.2359 194.166 81.4774C193.701 81.7551 193.242 82.0328 192.784 82.3226C192.434 82.5399 192.089 82.7572 191.739 82.9745C188.642 84.9486 185.697 87.0856 182.889 89.3735C182.654 89.5607 182.419 89.7539 182.195 89.947C181.591 90.4481 181 90.9552 180.408 91.4683C180.173 91.6736 179.937 91.8788 179.714 92.0841C179.322 92.4342 178.935 92.7783 178.549 93.1405C178.495 93.1888 178.434 93.2431 178.386 93.2914C177.963 93.6778 177.547 94.0702 177.13 94.4686C176.798 94.7825 176.478 95.1025 176.152 95.4224C175.887 95.6759 175.621 95.9416 175.368 96.2072C174.891 96.6841 174.438 97.155 173.979 97.6379C173.683 97.9458 173.381 98.2657 173.092 98.5796C172.947 98.7426 172.796 98.9056 172.651 99.0686C172.234 99.5274 171.812 99.9922 171.401 100.463C171.003 100.916 170.611 101.369 170.224 101.833C170.218 101.846 170.212 101.852 170.2 101.864C169.439 102.763 168.697 103.675 167.979 104.598C167.966 104.604 167.96 104.616 167.954 104.622C167.725 104.912 167.502 105.196 167.284 105.498C166.167 106.947 165.093 108.438 164.067 109.959C163.723 110.448 163.397 110.943 163.071 111.438C162.708 111.993 162.346 112.555 161.996 113.116C161.646 113.678 161.284 114.245 160.952 114.819C160.891 114.915 160.825 115.024 160.771 115.12C160.487 115.597 160.203 116.068 159.925 116.551C159.593 117.137 159.267 117.716 158.941 118.302C158.609 118.893 158.296 119.479 157.994 120.077C157.68 120.674 157.366 121.272 157.064 121.882C156.823 122.359 156.581 122.848 156.34 123.337C156.291 123.451 156.231 123.566 156.177 123.687C156.068 123.91 155.965 124.127 155.869 124.357C155.706 124.689 155.555 125.021 155.398 125.359C155.337 125.498 155.271 125.63 155.217 125.763C155.018 126.198 154.818 126.645 154.625 127.085C154.547 127.242 154.486 127.399 154.414 127.568C154.172 128.124 153.937 128.691 153.702 129.253V129.265C153.472 129.814 153.243 130.369 153.037 130.919C152.947 131.136 152.868 131.341 152.784 131.565C152.627 131.969 152.47 132.38 152.319 132.796C152.259 132.947 152.204 133.092 152.156 133.249C152.023 133.599 151.897 133.943 151.776 134.299C151.552 134.915 151.341 135.537 151.13 136.165C151.088 136.291 151.039 136.424 150.997 136.551C150.913 136.799 150.84 137.04 150.762 137.288C150.587 137.831 150.405 138.386 150.236 138.936C150.037 139.582 149.844 140.24 149.651 140.898V140.916C149.476 141.513 149.307 142.105 149.144 142.709C149.095 142.878 149.047 143.053 149.011 143.222C148.854 143.783 148.715 144.363 148.57 144.93C148.401 145.594 148.238 146.258 148.087 146.94V146.965C147.791 148.226 147.52 149.5 147.266 150.78C146.451 150.731 145.842 150.689 145.232 150.653C145.159 150.647 145.093 150.647 145.027 150.641C144.827 150.623 144.634 150.611 144.423 150.605C144.338 150.599 144.266 150.593 144.181 150.587C144.019 150.575 143.843 150.568 143.662 150.556C143.566 150.55 143.481 150.544 143.385 150.538C150.75 100.723 187.381 61.9967 242.968 57.8132C247.266 57.4872 251.51 57.3906 255.681 57.5053C256.822 57.5355 257.957 57.5898 259.086 57.6442C259.84 57.6804 260.589 57.7347 261.337 57.7891C262.086 57.8434 262.835 57.9098 263.571 57.9762C264.688 58.0788 265.793 58.1996 266.897 58.3324C272.735 59.0507 278.416 60.1857 283.897 61.7371C284.392 61.876 284.881 62.0148 285.364 62.1537C285.853 62.2985 286.342 62.4434 286.819 62.5943C287.634 62.8479 288.455 63.1135 289.258 63.3852C289.885 63.5964 290.513 63.8077 291.135 64.0311C291.612 64.2001 292.083 64.3752 292.56 64.5503C293.031 64.7253 293.495 64.9064 293.966 65.0875C294.166 65.166 294.359 65.2385 294.558 65.3169C294.824 65.4256 295.095 65.5343 295.367 65.6429C296.405 66.0595 297.431 66.5001 298.458 66.9469C298.482 66.9589 298.5 66.965 298.53 66.9771C299.532 67.4177 300.522 67.8765 301.506 68.3474C301.609 68.3957 301.724 68.45 301.82 68.4983C302.237 68.7036 302.641 68.8967 303.058 69.108C303.112 69.1322 303.172 69.1563 303.227 69.1926C303.716 69.434 304.199 69.6815 304.676 69.9351C305.183 70.2007 305.684 70.4603 306.185 70.7319C306.68 70.9976 307.175 71.2752 307.67 71.5469C308.72 72.1325 309.753 72.7361 310.779 73.3579C311.141 73.5753 311.491 73.7926 311.847 74.0099C312.874 74.6498 313.882 75.3018 314.884 75.9719C315.355 76.2797 315.819 76.5997 316.278 76.9196C316.743 77.2456 317.202 77.5656 317.661 77.8976C318.12 78.2236 318.572 78.5556 319.025 78.8937C319.484 79.2257 319.931 79.5638 320.377 79.9079C320.764 80.1976 321.144 80.4995 321.518 80.7953C322.043 81.2058 322.563 81.6163 323.07 82.0388C323.486 82.389 323.909 82.727 324.319 83.0832C324.808 83.4877 325.291 83.9042 325.768 84.3328C326.13 84.6467 326.499 84.9727 326.861 85.3047C327.265 85.6669 327.67 86.0412 328.062 86.4095C328.092 86.4276 328.11 86.4517 328.135 86.4698C328.436 86.7536 328.738 87.0313 329.028 87.315C330.012 88.2507 330.978 89.2105 331.932 90.1885C332.227 90.4903 332.529 90.7982 332.819 91.1061C333.145 91.4562 333.465 91.7943 333.785 92.1444C333.948 92.3195 334.123 92.5006 334.28 92.6757C334.515 92.9292 334.745 93.1828 334.962 93.4423C336.453 95.1085 337.896 96.8229 339.278 98.5857C339.508 98.8754 339.731 99.1652 339.949 99.455C340.208 99.787 340.456 100.113 340.709 100.457C340.951 100.771 341.186 101.097 341.428 101.423C341.669 101.737 341.904 102.069 342.128 102.407C342.261 102.582 342.393 102.769 342.52 102.95C342.575 103.029 342.629 103.107 342.683 103.186C342.991 103.614 343.293 104.055 343.595 104.496C343.891 104.936 344.198 105.389 344.488 105.83C344.736 106.204 344.983 106.584 345.225 106.959C345.388 107.218 345.557 107.478 345.72 107.737C345.973 108.142 346.233 108.552 346.486 108.975C346.661 109.253 346.837 109.542 347 109.832L346.993 109.838Z" fill="#B8D3EE" stroke="#020140" stroke-width="0.603679" mask="url(#path-15-inside-1_1_3465)"/>
<path d="M355.583 42.7815L354.424 52.0419L353.778 57.2517C352.16 56.0805 350.531 54.9456 348.87 53.8409C320.081 34.6861 284.5 25.5645 246.45 30.4543C178.645 39.1534 134.13 88.6309 131.769 151.637C131.51 151.619 131.274 151.607 131.057 151.595C130.912 151.583 130.773 151.57 130.634 151.564C130.429 151.552 130.236 151.54 130.043 151.528C129.385 151.492 128.757 151.45 127.888 151.401C128.503 84.0007 175.687 30.889 247.603 20.7351C285.182 15.4227 320.715 22.9144 350.609 39.8536C352.281 40.7954 353.941 41.7794 355.583 42.7875V42.7815Z" fill="white"/>
<path d="M353.778 57.2512L352.505 67.4474L351.828 72.8865C350.247 71.4981 348.635 70.1458 346.993 68.8298C319.707 46.9344 284.017 35.7965 245.291 40.1852C181.579 47.3992 139.714 93.2667 135.651 151.878C134.1 151.781 133.321 151.733 131.775 151.636C134.13 88.6244 178.651 39.1469 246.456 30.4539C284.506 25.5702 320.087 34.6857 348.876 53.8405C350.537 54.9452 352.173 56.0741 353.784 57.2512H353.778Z" fill="#F9FBFE"/>
<path d="M351.829 72.8875L350.458 83.8563L349.643 90.4364C348.122 88.6978 346.553 87.0136 344.935 85.3776C319.834 59.9205 283.927 46.1083 244.139 49.9175C184.483 55.6344 145.274 97.904 139.521 152.12C139.424 152.12 139.334 152.114 139.237 152.108C137.873 152.018 137.094 151.975 135.651 151.879C139.72 93.2677 181.579 47.4002 245.292 40.1862C284.018 35.8035 319.713 46.9414 346.993 68.8308C348.635 70.1408 350.241 71.499 351.829 72.8875Z" fill="#F0F5FB"/>
<path d="M349.643 90.4353L348.213 101.893L346.999 111.649C346.836 111.365 346.661 111.069 346.486 110.791C346.233 110.375 345.973 109.964 345.719 109.554C345.557 109.294 345.387 109.035 345.224 108.775C344.983 108.401 344.736 108.02 344.488 107.646C344.198 107.205 343.89 106.753 343.595 106.312C343.293 105.871 342.991 105.431 342.683 105.002C342.629 104.924 342.574 104.845 342.52 104.767C342.393 104.586 342.26 104.398 342.128 104.223C341.898 103.885 341.663 103.559 341.427 103.239C341.186 102.907 340.95 102.593 340.709 102.273C340.455 101.929 340.208 101.603 339.948 101.271C339.725 100.982 339.508 100.698 339.278 100.402C337.896 98.6393 336.453 96.9248 334.962 95.2587C334.739 94.9991 334.509 94.7455 334.28 94.492C334.123 94.3169 333.954 94.1298 333.785 93.9608C333.471 93.6106 333.145 93.2726 332.819 92.9224C332.529 92.6146 332.227 92.3067 331.931 92.0048C330.984 91.0208 330.012 90.067 329.028 89.1313C328.738 88.8536 328.436 88.5759 328.134 88.2862C328.116 88.2681 328.098 88.2439 328.062 88.2258C327.669 87.8576 327.265 87.4833 326.861 87.1211C326.498 86.7891 326.13 86.4691 325.768 86.1492C325.285 85.7266 324.802 85.304 324.319 84.8995C323.909 84.5434 323.492 84.2053 323.069 83.8552C322.562 83.4386 322.043 83.0281 321.518 82.6116C321.144 82.3158 320.763 82.014 320.377 81.7242C319.936 81.3801 319.484 81.042 319.025 80.71C318.584 80.3659 318.119 80.0399 317.661 79.7139C317.202 79.3819 316.743 79.0559 316.278 78.736C315.819 78.41 315.354 78.0961 314.884 77.7882C313.881 77.1181 312.873 76.4661 311.847 75.8262C311.485 75.6089 311.135 75.3916 310.779 75.1743C309.752 74.5525 308.72 73.9428 307.67 73.3632C307.175 73.0855 306.68 72.8078 306.185 72.5483C305.684 72.2706 305.182 72.011 304.675 71.7514C304.192 71.4979 303.703 71.2564 303.227 71.0089C303.172 70.9787 303.112 70.9545 303.058 70.9244C302.647 70.7131 302.243 70.5199 301.82 70.3146C301.717 70.2664 301.603 70.212 301.506 70.1637C300.516 69.6929 299.532 69.2401 298.53 68.7934C298.506 68.7813 298.488 68.7753 298.457 68.7632C297.431 68.3104 296.405 67.8758 295.367 67.4592C295.095 67.3506 294.823 67.2419 294.558 67.1333C293.9 66.8676 293.23 66.6141 292.56 66.3666C292.083 66.1915 291.612 66.0165 291.135 65.8474C290.513 65.6241 289.885 65.4067 289.257 65.2015C288.455 64.9298 287.634 64.6642 286.819 64.4107C286.336 64.2598 285.847 64.1149 285.364 63.97C284.875 63.8311 284.386 63.6923 283.897 63.5534C278.415 62.008 272.735 60.8671 266.897 60.1487C265.792 60.0159 264.688 59.8952 263.571 59.7925C262.828 59.7201 262.08 59.6597 261.337 59.6054C260.589 59.5511 259.84 59.4967 259.086 59.4605C257.957 59.4001 256.822 59.3458 255.681 59.3217C251.503 59.207 247.259 59.3096 242.967 59.6295C187.381 63.8191 150.755 102.545 143.384 152.355C142.95 152.33 142.575 152.306 142.225 152.282C142.111 152.27 141.996 152.264 141.881 152.258C141.736 152.252 141.591 152.24 141.447 152.234C140.94 152.204 140.426 152.174 139.786 152.131C139.738 152.125 139.69 152.125 139.648 152.119C139.599 152.119 139.551 152.113 139.509 152.113C145.262 97.8907 184.471 55.6151 244.126 49.9043C283.915 46.089 319.828 59.9072 344.923 85.3644C346.541 87.0064 348.11 88.6906 349.631 90.4232L349.643 90.4353Z" fill="#DEE9F5"/>
<path d="M357.286 25.4197C362.404 25.4197 366.553 21.2709 366.553 16.1532C366.553 11.0355 362.404 6.88672 357.286 6.88672C352.169 6.88672 348.02 11.0355 348.02 16.1532C348.02 21.2709 352.169 25.4197 357.286 25.4197Z" fill="#FDFFFF"/>
<path d="M120.018 131.222C132.13 131.222 142.394 139.144 145.906 150.095L145.973 150.302L146.182 150.24C147.892 149.732 149.699 149.459 151.576 149.459C161.97 149.459 170.398 157.888 170.398 168.282C170.398 168.577 170.398 168.868 170.373 169.14L170.351 169.383H170.621C176.142 169.383 180.613 173.854 180.613 179.375C180.613 184.899 176.545 188.959 171.377 189.333L171.294 189.339L171.235 189.397L171.227 189.407L171.146 189.488L171.165 189.602C171.34 190.618 171.429 191.661 171.429 192.74C171.429 203.143 162.999 211.563 152.605 211.563C147.185 211.563 142.291 209.275 138.861 205.6L138.667 205.392L138.513 205.63C133.671 213.086 125.265 218.015 115.705 218.016C107.642 218.016 100.406 214.512 95.4229 208.939L95.29 208.791L95.1279 208.907C92.0405 211.135 88.2514 212.451 84.1553 212.451C74.7266 212.451 66.92 205.522 65.543 196.47L65.5146 196.281H65.1104C57.4411 196.281 51.2217 190.062 51.2217 182.393C51.2218 174.721 56.9051 169.046 64.1055 168.539L64.3027 168.525L64.3115 168.327C64.7502 158.319 73.0043 150.329 83.1172 150.329C86.7574 150.329 90.1515 151.364 93.0371 153.162L93.3086 153.331L93.3721 153.018C95.872 140.579 106.858 131.222 120.018 131.222Z" fill="#F0F5FB" stroke="#020140" stroke-width="0.44373"/>
<path d="M90.3491 159.266C91.8667 159.7 93.3132 160.41 94.5823 161.351L90.3491 159.266Z" fill="white"/>
<path d="M119.636 138.189C121.349 138.047 123.097 138.348 124.668 139.041L119.636 138.189Z" fill="white"/>
<path d="M145.407 202.672C146.499 203.479 147.821 203.968 149.179 204.065L145.407 202.672Z" fill="white"/>
<g clip-path="url(#clip0_1_3465)">
<g clip-path="url(#clip1_1_3465)">
<path d="M374.917 193.254C403.896 193.254 427.388 188.604 427.388 182.867C427.388 177.131 403.896 172.48 374.917 172.48C345.938 172.48 322.446 177.131 322.446 182.867C322.446 188.604 345.938 193.254 374.917 193.254Z" fill="#DEE9F5"/>
<path d="M418.991 171.18C447.97 171.18 471.463 166.53 471.463 160.793C471.463 155.057 447.97 150.406 418.991 150.406C390.012 150.406 366.52 155.057 366.52 160.793C366.52 166.53 390.012 171.18 418.991 171.18Z" fill="#DEE9F5"/>
<path d="M383.915 148.683C412.894 148.683 436.386 144.032 436.386 138.296C436.386 132.559 412.894 127.909 383.915 127.909C354.936 127.909 331.444 132.559 331.444 138.296C331.444 144.032 354.936 148.683 383.915 148.683Z" fill="#DEE9F5"/>
</g>
<path d="M331.929 119.085V136.922C331.929 141.933 347.589 145.995 366.904 145.995C386.22 145.995 401.88 141.933 401.88 136.922V119.085H331.929Z" fill="white"/>
<path d="M349.292 144.753V119.07H331.929V136.908C331.929 140.253 338.915 143.175 349.306 144.753H349.292Z" fill="#DEE9F5"/>
<path d="M331.929 119.085V136.922C331.929 141.933 347.589 145.995 366.904 145.995C386.22 145.995 401.88 141.933 401.88 136.922V119.085H331.929Z" stroke="#020140" stroke-width="0.44373" stroke-linecap="round" stroke-linejoin="round"/>
<path d="M366.904 127.762C386.221 127.762 401.88 123.701 401.88 118.69C401.88 113.68 386.221 109.618 366.904 109.618C347.588 109.618 331.929 113.68 331.929 118.69C331.929 123.701 347.588 127.762 366.904 127.762Z" fill="white" stroke="#020140" stroke-width="0.44373" stroke-linecap="round" stroke-linejoin="round"/>
<path d="M366.906 123.015C381.189 123.015 392.767 121.079 392.767 118.69C392.767 116.302 381.189 114.366 366.906 114.366C352.623 114.366 341.045 116.302 341.045 118.69C341.045 121.079 352.623 123.015 366.906 123.015Z" fill="#DEE9F5"/>
<path d="M331.929 100.897V118.735C331.929 123.745 347.589 127.807 366.904 127.807C386.22 127.807 401.88 123.745 401.88 118.735V100.897H331.929Z" fill="white"/>
<path d="M349.292 126.58V100.897H331.929V118.735C331.929 122.08 338.915 125.002 349.306 126.58H349.292Z" fill="#DEE9F5"/>
<path d="M331.929 100.897V118.735C331.929 123.745 347.589 127.807 366.904 127.807C386.22 127.807 401.88 123.745 401.88 118.735V100.897H331.929Z" stroke="#020140" stroke-width="0.44373" stroke-linecap="round" stroke-linejoin="round"/>
<path d="M366.904 109.589C386.221 109.589 401.88 105.527 401.88 100.517C401.88 95.5066 386.221 91.4448 366.904 91.4448C347.588 91.4448 331.929 95.5066 331.929 100.517C331.929 105.527 347.588 109.589 366.904 109.589Z" fill="white" stroke="#020140" stroke-width="0.44373" stroke-linecap="round" stroke-linejoin="round"/>
<path d="M366.906 104.841C381.189 104.841 392.767 102.905 392.767 100.517C392.767 98.1289 381.189 96.1929 366.906 96.1929C352.623 96.1929 341.045 98.1289 341.045 100.517C341.045 102.905 352.623 104.841 366.906 104.841Z" fill="#DEE9F5"/>
<path d="M316.575 82.708V100.546C316.575 105.556 332.235 109.618 351.551 109.618C370.866 109.618 386.526 105.556 386.526 100.546V82.708H316.575Z" fill="white"/>
<path d="M333.938 108.391V82.708H316.575V100.546C316.575 103.891 323.561 106.813 333.953 108.391H333.938Z" fill="#DEE9F5"/>
<path d="M316.575 82.708V100.546C316.575 105.556 332.235 109.618 351.551 109.618C370.866 109.618 386.526 105.556 386.526 100.546V82.708H316.575Z" stroke="#020140" stroke-width="0.44373" stroke-linecap="round" stroke-linejoin="round"/>
<path d="M351.551 91.4007C370.867 91.4007 386.526 87.3389 386.526 82.3285C386.526 77.3181 370.867 73.2563 351.551 73.2563C332.234 73.2563 316.575 77.3181 316.575 82.3285C316.575 87.3389 332.234 91.4007 351.551 91.4007Z" fill="white" stroke="#020140" stroke-width="0.44373" stroke-linecap="round" stroke-linejoin="round"/>
<path d="M351.552 86.6529C365.835 86.6529 377.413 84.7169 377.413 82.3286C377.413 79.9404 365.835 78.0044 351.552 78.0044C337.269 78.0044 325.691 79.9404 325.691 82.3286C325.691 84.7169 337.269 86.6529 351.552 86.6529Z" fill="#DEE9F5"/>
<path d="M331.929 64.5347V82.3722C331.929 87.3831 347.589 91.4444 366.904 91.4444C386.22 91.4444 401.88 87.3831 401.88 82.3722V64.5347H331.929Z" fill="white"/>
<path d="M349.292 90.2021V64.5195H331.929V82.3571C331.929 85.7025 338.915 88.6243 349.306 90.2021H349.292Z" fill="#DEE9F5"/>
<path d="M331.929 64.5347V82.3722C331.929 87.3831 347.589 91.4444 366.904 91.4444C386.22 91.4444 401.88 87.3831 401.88 82.3722V64.5347H331.929Z" stroke="#020140" stroke-width="0.44373" stroke-linecap="round" stroke-linejoin="round"/>
<path d="M366.904 73.2122C386.221 73.2122 401.88 69.1504 401.88 64.14C401.88 59.1296 386.221 55.0679 366.904 55.0679C347.588 55.0679 331.929 59.1296 331.929 64.14C331.929 69.1504 347.588 73.2122 366.904 73.2122Z" fill="white" stroke="#020140" stroke-width="0.44373" stroke-linecap="round" stroke-linejoin="round"/>
<path d="M366.906 68.4644C381.189 68.4644 392.767 66.5284 392.767 64.1402C392.767 61.752 381.189 59.8159 366.906 59.8159C352.623 59.8159 341.045 61.752 341.045 64.1402C341.045 66.5284 352.623 68.4644 366.906 68.4644Z" fill="#DEE9F5"/>
<path d="M362.074 46.7847V64.6222C362.074 69.6331 377.735 73.6944 397.05 73.6944C416.365 73.6944 432.026 69.6331 432.026 64.6222V46.7847H362.074Z" fill="white"/>
<path d="M379.437 72.4672V46.7847H362.074V64.6222C362.074 67.9676 369.061 70.8894 379.452 72.4672H379.437Z" fill="#DEE9F5"/>
<path d="M362.074 46.7847V64.6222C362.074 69.6331 377.735 73.6944 397.05 73.6944C416.365 73.6944 432.026 69.6331 432.026 64.6222V46.7847H362.074Z" stroke="#020140" stroke-width="0.44373" stroke-linecap="round" stroke-linejoin="round"/>
<path d="M397.05 55.4773C416.367 55.4773 432.026 51.4156 432.026 46.4052C432.026 41.3948 416.367 37.333 397.05 37.333C377.733 37.333 362.074 41.3948 362.074 46.4052C362.074 51.4156 377.733 55.4773 397.05 55.4773Z" fill="white" stroke="#020140" stroke-width="0.44373" stroke-linecap="round" stroke-linejoin="round"/>
<path d="M397.051 50.7296C411.334 50.7296 422.913 48.7935 422.913 46.4053C422.913 44.0171 411.334 42.0811 397.051 42.0811C382.769 42.0811 371.19 44.0171 371.19 46.4053C371.19 48.7935 382.769 50.7296 397.051 50.7296Z" fill="#DEE9F5"/>
<path d="M293.329 172.298L310.369 177.713C315.156 179.234 323.816 165.614 329.712 147.294C335.607 128.975 336.508 112.889 331.721 111.368L314.681 105.953L293.329 172.298Z" fill="white"/>
<path d="M323.195 163.612L298.635 155.809L293.329 172.29L310.387 177.709C313.586 178.726 318.515 172.982 323.199 163.598L323.195 163.612Z" fill="#DEE9F5"/>
<path d="M293.329 172.298L310.369 177.713C315.156 179.234 323.816 165.614 329.712 147.294C335.607 128.975 336.508 112.889 331.721 111.368L314.681 105.953L293.329 172.298Z" stroke="#020140" stroke-width="0.44373" stroke-linecap="round" stroke-linejoin="round"/>
<path d="M312.283 141.749C318.177 123.431 319.077 107.348 314.292 105.827C309.508 104.306 300.851 117.923 294.957 136.242C289.063 154.56 288.164 170.643 292.948 172.164C297.733 173.685 306.389 160.068 312.283 141.749Z" fill="white" stroke="#020140" stroke-width="0.44373" stroke-linecap="round" stroke-linejoin="round"/>
<path d="M307.75 140.307C312.106 126.764 313.789 115.197 311.51 114.472C309.23 113.747 303.85 124.139 299.494 137.682C295.138 151.226 293.454 162.792 295.734 163.517C298.014 164.242 303.393 153.85 307.75 140.307Z" fill="#DEE9F5"/>
<path d="M379.687 141.568V159.405C379.687 164.416 395.347 168.478 414.663 168.478C433.978 168.478 449.639 164.416 449.639 159.405V141.568H379.687Z" fill="white"/>
<path d="M397.065 167.25V141.568H379.687V159.405C379.687 162.751 386.673 165.673 397.065 167.25Z" fill="#DEE9F5"/>
<path d="M379.687 141.568V159.405C379.687 164.416 395.347 168.478 414.663 168.478C433.978 168.478 449.639 164.416 449.639 159.405V141.568H379.687Z" stroke="#020140" stroke-width="0.44373" stroke-linecap="round" stroke-linejoin="round"/>
<path d="M414.663 150.26C433.979 150.26 449.639 146.198 449.639 141.188C449.639 136.177 433.979 132.116 414.663 132.116C395.346 132.116 379.687 136.177 379.687 141.188C379.687 146.198 395.346 150.26 414.663 150.26Z" fill="white" stroke="#020140" stroke-width="0.44373" stroke-linecap="round" stroke-linejoin="round"/>
<path d="M414.664 145.512C428.947 145.512 440.525 143.576 440.525 141.188C440.525 138.8 428.947 136.864 414.664 136.864C400.381 136.864 388.803 138.8 388.803 141.188C388.803 143.576 400.381 145.512 414.664 145.512Z" fill="#DEE9F5"/>
<path d="M366.902 123.395V141.233C366.902 146.243 382.562 150.305 401.877 150.305C421.193 150.305 436.853 146.243 436.853 141.233V123.395H366.902Z" fill="white"/>
<path d="M384.279 149.063V123.38H366.902V141.218C366.902 144.563 373.888 147.485 384.279 149.063Z" fill="#DEE9F5"/>
<path d="M366.902 123.395V141.233C366.902 146.243 382.562 150.305 401.877 150.305C421.193 150.305 436.853 146.243 436.853 141.233V123.395H366.902Z" stroke="#020140" stroke-width="0.44373" stroke-linecap="round" stroke-linejoin="round"/>
<path d="M401.877 132.073C421.194 132.073 436.853 128.011 436.853 123C436.853 117.99 421.194 113.928 401.877 113.928C382.561 113.928 366.902 117.99 366.902 123C366.902 128.011 382.561 132.073 401.877 132.073Z" fill="white" stroke="#020140" stroke-width="0.44373" stroke-linecap="round" stroke-linejoin="round"/>
<path d="M401.879 127.325C416.162 127.325 427.74 125.389 427.74 123.001C427.74 120.612 416.162 118.676 401.879 118.676C387.596 118.676 376.018 120.612 376.018 123.001C376.018 125.389 387.596 127.325 401.879 127.325Z" fill="#DEE9F5"/>
<path d="M375.284 105.221V123.059C375.284 128.07 390.944 132.131 410.26 132.131C429.575 132.131 445.235 128.07 445.235 123.059V105.221H375.284Z" fill="white"/>
<path d="M392.662 130.904V105.221H375.284V123.059C375.284 126.404 382.27 129.326 392.662 130.904Z" fill="#DEE9F5"/>
<path d="M375.284 105.221V123.059C375.284 128.07 390.944 132.131 410.26 132.131C429.575 132.131 445.235 128.07 445.235 123.059V105.221H375.284Z" stroke="#020140" stroke-width="0.44373" stroke-linecap="round" stroke-linejoin="round"/>
<path d="M410.26 113.913C429.576 113.913 445.235 109.852 445.235 104.841C445.235 99.8308 429.576 95.769 410.26 95.769C390.943 95.769 375.284 99.8308 375.284 104.841C375.284 109.852 390.943 113.913 410.26 113.913Z" fill="white" stroke="#020140" stroke-width="0.44373" stroke-linecap="round" stroke-linejoin="round"/>
<path d="M410.261 109.166C424.544 109.166 436.122 107.23 436.122 104.841C436.122 102.453 424.544 100.517 410.261 100.517C395.978 100.517 384.4 102.453 384.4 104.841C384.4 107.23 395.978 109.166 410.261 109.166Z" fill="#DEE9F5"/>
<path d="M440.142 104.487L422.445 107.144C417.474 107.89 415.795 123.911 418.693 142.925C421.591 161.939 427.97 176.75 432.942 176.004L450.639 173.347L440.142 104.487Z" fill="white"/>
<path d="M417.273 125.431L442.775 121.603L440.165 104.487L422.453 107.145C419.132 107.644 417.279 114.96 417.273 125.431Z" fill="#DEE9F5"/>
<path d="M440.142 104.487L422.445 107.144C417.474 107.89 415.795 123.911 418.693 142.925C421.591 161.939 427.97 176.75 432.942 176.004L450.639 173.347L440.142 104.487Z" stroke="#020140" stroke-width="0.44373" stroke-linecap="round" stroke-linejoin="round"/>
<path d="M436.786 140.203C439.684 159.217 446.06 174.025 451.03 173.279C455.999 172.533 457.678 156.514 454.781 137.501C451.883 118.487 445.506 103.678 440.537 104.424C435.568 105.171 433.889 121.189 436.786 140.203Z" fill="white" stroke="#020140" stroke-width="0.44373" stroke-linecap="round" stroke-linejoin="round"/>
<path d="M441.496 139.497C443.637 153.555 447.292 164.662 449.66 164.307C452.027 163.951 452.21 152.267 450.069 138.209C447.928 124.151 444.273 113.043 441.905 113.398C439.538 113.754 439.355 125.439 441.496 139.497Z" fill="#DEE9F5"/>
<path d="M322.813 163.613V181.451C322.813 186.462 338.473 190.523 357.788 190.523C377.104 190.523 392.764 186.462 392.764 181.451V163.613H322.813Z" fill="white"/>
<path d="M340.19 189.296V163.613H322.813V181.451C322.813 184.796 329.799 187.718 340.19 189.296Z" fill="#DEE9F5"/>
<path d="M322.813 163.613V181.451C322.813 186.462 338.473 190.523 357.788 190.523C377.104 190.523 392.764 186.462 392.764 181.451V163.613H322.813Z" stroke="#020140" stroke-width="0.44373" stroke-linecap="round" stroke-linejoin="round"/>
<path d="M357.788 172.305C377.105 172.305 392.764 168.244 392.764 163.233C392.764 158.223 377.105 154.161 357.788 154.161C338.472 154.161 322.813 158.223 322.813 163.233C322.813 168.244 338.472 172.305 357.788 172.305Z" fill="white" stroke="#020140" stroke-width="0.44373" stroke-linecap="round" stroke-linejoin="round"/>
<path d="M357.79 167.558C372.073 167.558 383.651 165.622 383.651 163.233C383.651 160.845 372.073 158.909 357.79 158.909C343.507 158.909 331.929 160.845 331.929 163.233C331.929 165.622 343.507 167.558 357.79 167.558Z" fill="#DEE9F5"/>
<path d="M282.066 170.234L288.96 186.699C290.896 191.324 306.921 189.077 324.75 181.682C342.579 174.286 355.465 164.541 353.529 159.916L346.635 143.451L282.066 170.234Z" fill="white"/>
<path d="M308.032 187.287L298.107 163.58L282.066 170.234L288.96 186.699C290.253 189.787 297.831 189.809 308.032 187.287Z" fill="#DEE9F5"/>
<path d="M282.066 170.234L288.96 186.699C290.896 191.324 306.921 189.077 324.75 181.682C342.579 174.286 355.465 164.541 353.529 159.916L346.635 143.451L282.066 170.234Z" stroke="#020140" stroke-width="0.44373" stroke-linecap="round" stroke-linejoin="round"/>
<path d="M317.711 164.866C335.541 157.47 348.426 147.725 346.489 143.1C344.553 138.475 328.529 140.722 310.699 148.118C292.868 155.514 279.984 165.258 281.92 169.883C283.856 174.508 299.881 172.262 317.711 164.866Z" fill="white" stroke="#020140" stroke-width="0.44373" stroke-linecap="round" stroke-linejoin="round"/>
<path d="M315.876 160.483C329.06 155.015 338.999 148.794 338.076 146.59C337.153 144.385 325.718 147.032 312.534 152.5C299.35 157.969 289.411 164.189 290.334 166.393C291.256 168.598 302.692 165.952 315.876 160.483Z" fill="#DEE9F5"/>
</g>
<path d="M324.567 41.4473L330.631 58.2221C332.335 62.9345 348.444 61.4292 366.608 54.8619C384.773 48.2947 398.119 39.1507 396.416 34.4384L390.351 17.6635L324.567 41.4473Z" fill="white"/>
<path d="M349.627 59.6962L340.895 35.5437L324.567 41.4473L330.631 58.2221C331.769 61.3683 339.332 61.7406 349.641 59.6912L349.627 59.6962Z" fill="#DEE9F5"/>
<path d="M324.567 41.4473L330.631 58.2221C332.335 62.9345 348.444 61.4292 366.608 54.8619C384.773 48.2947 398.119 39.1507 396.416 34.4384L390.351 17.6635L324.567 41.4473Z" stroke="#020140" stroke-width="0.44373" stroke-linecap="round" stroke-linejoin="round"/>
<path d="M360.414 37.7301C378.58 31.1624 391.925 22.0185 390.221 17.3065C388.518 12.5946 372.41 14.099 354.245 20.6667C336.079 27.2344 322.734 36.3784 324.437 41.0903C326.141 45.8022 342.248 44.2978 360.414 37.7301Z" fill="white" stroke="#020140" stroke-width="0.44373" stroke-linecap="round" stroke-linejoin="round"/>
<path d="M358.802 33.2642C372.234 28.408 382.464 22.6506 381.652 20.4047C380.84 18.1587 369.293 20.2747 355.862 25.1309C342.43 29.9871 332.199 35.7445 333.011 37.9905C333.823 40.2364 345.37 38.1204 358.802 33.2642Z" fill="#DEE9F5"/>
<defs>
<clipPath id="clip0_1_3465">
<rect width="190.804" height="189.916" fill="white" transform="translate(278.414 5.19336)"/>
</clipPath>
<clipPath id="clip1_1_3465">
<rect width="149.018" height="65.3458" fill="white" transform="translate(322.446 127.909)"/>
</clipPath>
</defs>
</svg>
