<svg width="55" height="93" viewBox="0 0 55 93" fill="none" xmlns="http://www.w3.org/2000/svg">
<path d="M9.13097 51.725L11.3933 51.1855L20.4424 52.2645L22.1472 53.0209L23.0818 54.1527L22.3277 55.2316L22.7047 55.5013V59.2777V60.3566V65.2119V70.0671V72.225V74.9224V78.1592V80.8566V83.0145V85.1724V85.7119V86.2513V88.4092V90.5671L16.672 92.1855H9.88507L3.09818 91.6461L0.835885 90.5671L0.0817871 87.3303L0.835885 85.7119L0.0817871 82.475L0.835885 80.8566L0.0817871 78.1592L0.835885 76.0013V74.9224L0.0817871 71.1461L0.835885 70.0671L0.380301 67.5406L0.835885 65.2119L0.331276 63.0865L0.380301 61.6836L0.835885 60.3566V59.8171L0.331276 57.7205L0.835885 55.5013V54.9619L0.380301 54.038L0.835885 53.3434L3.09818 52.2645L6.11457 51.725H7.62277H9.13097Z" fill="white"/>
<path d="M37.3998 34.4714L39.6928 33.707L48.8648 35.2357L50.5927 36.3074L51.54 37.9109L50.7756 39.4395L51.1578 39.8217V45.172V46.7007V53.5797V60.4587V63.5161V67.3377V71.9237V75.7454V78.8027V81.8601V82.6244V83.3887V86.4461V89.5034L45.0431 91.7964H38.1641L31.2851 91.0321L28.9921 89.5034L28.2278 84.9174L28.9921 82.6244L28.2278 78.0384L28.9921 75.7454L28.2278 71.9237L28.9921 68.8664V67.3377L28.2278 61.9874L28.9921 60.4587L28.5303 56.8791L28.9921 53.5797L28.4807 50.5684L28.5303 48.5808L28.9921 46.7007V45.9364L28.4807 42.9659L28.9921 39.8217V39.0574L28.5303 37.7484L28.9921 36.7644L31.2851 35.2357L34.3425 34.4714H35.8711H37.3998Z" fill="white"/>
<path d="M29.0812 82.7898C28.7056 83.3677 28.59 84.0033 28.6044 84.6823C28.6333 85.7802 28.6478 86.8925 28.6044 87.9904C28.5611 88.915 28.9367 89.435 29.7312 89.9118C31.277 90.8219 32.9672 91.1975 34.6718 91.4719C36.8821 91.8331 39.1356 91.992 41.3892 91.862C44.134 91.7031 46.8643 91.4575 49.4357 90.3452C50.9237 89.6951 51.5304 89.2906 51.4293 87.4126C51.3859 86.5025 51.4004 85.5779 51.4293 84.6678C51.4582 83.9889 51.3426 83.3532 50.9526 82.7754" stroke="#020140" stroke-width="0.372414" stroke-linecap="round" stroke-linejoin="round"/>
<path d="M22.929 82.7871C23.319 83.365 23.449 84.0006 23.4057 84.6796C23.3335 85.8786 23.4635 87.0776 23.3335 88.2766C23.2468 89.0423 22.9145 89.5046 22.2789 89.8946C20.7332 90.848 18.9852 91.1803 17.2516 91.4692C15.1281 91.8159 12.9756 91.9748 10.8231 91.8593C7.99169 91.7148 5.1747 91.4403 2.48773 90.3569C1.46205 89.9524 0.69641 89.3312 0.306366 88.2766C0.234135 88.0888 0.13301 87.8866 0.219687 87.7132C0.725301 86.7309 0.450825 85.6908 0.479717 84.6796C0.50861 84.0006 0.58084 83.365 0.970885 82.7871" stroke="#020140" stroke-width="0.372414" stroke-linecap="round" stroke-linejoin="round"/>
<path d="M0.986825 75.5957C0.59678 76.1735 0.495658 76.8092 0.510104 77.4881C0.538996 78.6872 0.510104 79.8862 0.510104 81.0852C0.510104 82.212 0.842364 82.5009 1.92582 82.891C3.44266 83.4399 4.97395 83.9022 6.56302 84.1622C9.01886 84.5812 11.4747 84.6101 13.945 84.5378C16.9209 84.4512 19.7379 83.6566 22.5549 82.8043C23.2916 82.5876 23.335 81.952 23.3494 81.5475C23.4505 79.9151 23.4216 78.2682 23.3638 76.6358C23.3638 76.3036 23.1905 75.8846 22.916 75.5957" stroke="#020140" stroke-width="0.372414" stroke-linecap="round" stroke-linejoin="round"/>
<path d="M29.1714 75.4077C29.677 75.3499 30.1393 75.5088 30.5871 75.6966C32.2773 76.4478 34.0686 76.7078 35.8888 76.9245C37.8391 77.1701 39.7893 77.199 41.7539 77.1268C44.3542 77.0256 46.8679 76.6212 49.3237 75.7688C49.8582 75.581 50.3638 75.3643 50.9417 75.3932" stroke="#020140" stroke-width="0.372414" stroke-linecap="round" stroke-linejoin="round"/>
<path d="M0.986793 61.0332C0.596748 61.611 0.481179 62.2467 0.510071 62.9256C0.538963 63.9658 0.538963 65.0059 0.510071 66.046C0.495625 66.7972 0.553409 67.5339 0.9579 68.2418C3.21149 68.733 5.42175 69.6286 7.80535 69.8453C9.94338 70.0476 12.0958 70.1198 14.2339 70.0187C17.0942 69.8887 19.8245 69.123 22.5693 68.3285C23.306 68.1118 23.3494 67.4184 23.3783 66.985C23.4938 65.3526 23.4505 63.7057 23.3927 62.0733C23.3927 61.7411 23.2193 61.3221 22.9449 61.0332" stroke="#020140" stroke-width="0.372414" stroke-linecap="round" stroke-linejoin="round"/>
<path d="M29.1714 68.0391C30.0959 68.068 30.876 68.5447 31.7283 68.8047C33.7364 69.4114 35.8021 69.7437 37.8824 69.8159C41.595 69.9459 45.2932 69.8593 48.8614 68.6025C49.5404 68.3569 50.2049 68.0391 50.9417 68.0391" stroke="#020140" stroke-width="0.372414" stroke-linecap="round" stroke-linejoin="round"/>
<path d="M0.986825 54.0261C0.59678 54.6039 0.495658 55.2395 0.510104 55.9185C0.538996 57.0164 0.510104 58.1288 0.510104 59.2267C0.510104 60.469 0.784581 60.7002 2.0125 61.1336C3.22597 61.5814 4.43944 62.0292 5.7107 62.2315C8.20988 62.6504 10.7235 62.8815 13.2805 62.7515C15.5629 62.636 17.7876 62.347 19.9979 61.7836C20.9225 61.5525 21.7314 61.0324 22.7427 60.9747C23.2483 60.9458 23.3494 60.1946 23.3783 59.7901C23.465 58.2154 23.4505 56.6408 23.3783 55.0662C23.3783 54.7195 23.2049 54.315 22.9305 54.0261" stroke="#020140" stroke-width="0.372414" stroke-linecap="round" stroke-linejoin="round"/>
<path d="M29.1714 53.4634C29.5325 53.4634 29.8648 53.5067 30.2115 53.6367C33.9675 55.1102 37.8679 55.3847 41.8406 55.1825C43.9931 55.0813 46.1022 54.778 48.1825 54.2146C49.0926 53.969 49.9304 53.42 50.9272 53.4634" stroke="#020140" stroke-width="0.372414" stroke-linecap="round" stroke-linejoin="round"/>
<path d="M29.083 60.8457C28.7074 61.4235 28.5919 62.0592 28.6063 62.7381C28.6352 63.9083 28.4763 65.0929 28.6496 66.2341C28.823 67.3898 28.823 68.4877 28.6496 69.6578C28.4618 70.958 28.4763 72.3159 28.6496 73.6161C28.8086 74.7717 28.823 75.8696 28.6496 77.0398C28.4618 78.3399 28.5919 79.6834 28.6063 81.0125C28.6063 82.2404 28.8952 82.5149 30.022 82.9193C31.7845 83.555 33.5758 84.0895 35.4249 84.2917C38.0252 84.5807 40.6399 84.5951 43.2691 84.4073C45.7972 84.2195 48.1374 83.4105 50.5499 82.8182C51.3589 82.616 51.3878 81.8792 51.3589 81.3881C51.2578 79.4667 51.8068 77.5021 51.0267 75.6096C50.9978 75.5229 50.9978 75.4074 51.0267 75.3351C51.7634 73.5727 51.4889 71.7236 51.3445 69.9467C51.1422 67.5342 51.6045 65.1506 51.4167 62.7526C51.3589 62.0736 51.3156 61.438 50.9255 60.8602" stroke="#020140" stroke-width="0.372414" stroke-linecap="round" stroke-linejoin="round"/>
<path d="M28.0117 21.8447L26.1497 17.7481V16.6309H28.0117L33.2255 17.3757L37.3221 19.9826L39.929 21.8447L41.791 21.0998L44.3979 18.1205L46.6324 17.3757L50.729 16.6309H53.7083L54.0807 17.7481L49.9841 24.0791L44.7703 25.5688H39.929H33.2255L28.0117 21.8447Z" fill="#BDD2EB"/>
<path d="M29.083 46.2695C28.7074 46.8474 28.5918 47.483 28.6063 48.162C28.6352 49.3321 28.4763 50.5167 28.6496 51.6579C28.823 52.8136 28.823 53.9115 28.6496 55.0817C28.4618 56.3818 28.6063 57.7253 28.6063 59.0543C28.6063 59.5599 28.7941 60.0078 28.9674 60.4845C29.213 61.0912 29.7475 60.8023 30.1231 60.9323C31.51 61.3946 32.9112 61.8713 34.3703 62.088C37.1295 62.507 39.9031 62.7092 42.6912 62.4347C44.4103 62.2614 46.1294 62.0591 47.8052 61.6113C48.8453 61.3368 49.8276 60.8023 50.9255 60.759C51.3445 60.0511 51.4311 59.2855 51.4022 58.4909C51.3733 57.2919 51.5034 56.0784 51.3589 54.8939C51.2433 53.926 51.2578 53.0159 51.3589 52.048C51.5034 50.6178 51.3878 49.1443 51.4022 47.6997C51.4022 47.1652 51.1855 46.7174 50.9255 46.284" stroke="#020140" stroke-width="0.372414" stroke-linecap="round" stroke-linejoin="round"/>
<path d="M28.7081 39.0566C28.3306 39.6633 28.2145 40.3306 28.229 41.0434C28.258 42.2415 28.229 43.4245 28.229 44.6226C28.2435 45.8511 28.5484 46.1544 29.6518 46.5184C31.3649 47.0947 33.0926 47.6407 34.8783 47.8985C35.764 48.0198 36.6496 48.1715 37.5352 48.1867C39.6548 48.2322 41.789 48.308 43.9087 47.9895C45.1863 47.8075 46.4784 47.6103 47.7125 47.2009C48.4094 46.9734 49.0772 46.6549 49.8031 46.5032C50.7178 46.3212 51.0807 45.9269 51.1243 44.9259C51.1823 43.4093 51.1533 41.8775 51.1243 40.3609C51.1243 39.8908 50.921 39.4661 50.6597 39.0718" stroke="#020140" stroke-width="0.372414" stroke-linecap="round" stroke-linejoin="round"/>
<path d="M39.9308 16.573L37.3239 12.8489L36.5791 10.6144V5.77302L38.4412 2.4213L39.5584 0.931641H40.6757L43.2825 5.40061L43.655 7.26267L43.2825 11.3592L41.7929 15.0834L39.9308 16.573Z" fill="#BDD2EB"/>
<path d="M29.1688 39.1753C30.8734 39.4643 32.4625 40.2444 34.1816 40.5044C37.0997 40.9378 40.0178 41.0389 42.9792 40.8366C45.6373 40.6633 48.0932 39.811 50.6357 39.262C51.3291 39.1176 51.6469 37.4707 51.0979 36.8206C50.4334 36.0116 49.5089 35.6216 48.5554 35.3038C46.3741 34.5526 44.1205 34.307 41.838 34.177C41.6791 34.177 41.5057 34.2203 41.3613 34.177C39.9022 33.5558 38.4576 34.2348 37.013 34.2637C35.5539 34.307 34.0804 34.5381 32.6647 34.9282C31.8991 35.1449 31.119 35.3616 30.3967 35.6938C28.5909 36.5317 28.2731 37.3696 29.0676 39.1898" stroke="#020140" stroke-width="0.372414" stroke-linecap="round" stroke-linejoin="round"/>
<path d="M39.9616 16.6697V21.928C41.1028 21.6102 42.0274 21.1046 42.6919 20.2667C44.6854 17.7676 47.3291 16.6263 50.4639 16.6119C51.4751 16.6119 52.5008 16.3663 53.512 16.9297C53.9454 17.1753 54.0032 17.392 53.9454 17.7242C53.6998 19.1688 52.9053 20.3679 52.053 21.5091C50.4639 23.6327 48.3403 24.9184 45.7256 25.3951C44.3098 25.6551 42.8508 25.7274 41.4784 25.4384C40.1783 25.164 38.9359 25.3662 37.6791 25.4962C32.9263 25.9874 29.0981 23.936 26.9023 19.9056C26.4545 19.0822 25.8911 18.2876 26.0355 17.2619" stroke="#020140" stroke-width="0.372414" stroke-linecap="round" stroke-linejoin="round"/>
<path d="M40.0453 1.05231C38.8462 1.50014 38.3551 2.62694 37.7917 3.60927C36.766 5.41504 36.2171 7.37971 36.376 9.45995C36.5638 12.0169 37.6328 14.2416 39.3085 16.1629C39.8141 16.7408 40.5798 16.553 41.1721 15.6862C42.1544 14.2705 42.9778 12.7681 43.3534 11.0635C44.1335 7.55306 43.079 4.47604 40.9698 1.71683C40.5942 1.22567 39.843 1.00897 39.9875 0.185547" stroke="#020140" stroke-width="0.372414" stroke-linecap="round" stroke-linejoin="round"/>
<path d="M39.9623 25.0774C39.9623 24.0661 39.9478 23.0549 40.02 21.9137C37.9687 21.5525 37.0441 19.5589 35.4406 18.4322C33.7504 17.262 31.9013 16.5831 29.85 16.5686C28.6076 16.5686 27.293 16.2508 26.1518 17.1176C25.9784 17.2476 25.8195 16.9009 25.5884 16.9875" stroke="#020140" stroke-width="0.372414" stroke-linecap="round" stroke-linejoin="round"/>
<path d="M0.986825 68.414C0.59678 68.9919 0.495658 69.6275 0.510104 70.3065C0.538996 71.5055 0.510104 72.7045 0.510104 73.9036C0.52455 75.0737 0.827917 75.4204 1.92582 75.7093C3.19708 76.0271 4.3961 76.5472 5.7107 76.7783C7.22754 77.0384 8.72994 77.2839 10.2612 77.3128C12.2548 77.3417 14.2483 77.3995 16.213 77.125C17.4843 76.9517 18.7555 76.735 19.9979 76.3738C20.6913 76.1716 21.3558 75.8538 22.0781 75.7093C23.0171 75.5215 23.3638 75.117 23.3927 74.1058C23.4361 72.6612 23.3927 71.2021 23.3927 69.7575C23.3927 69.223 23.0605 68.8185 22.916 68.3418" stroke="#020140" stroke-width="0.372414" stroke-linecap="round" stroke-linejoin="round"/>
<path d="M40.0459 25.3652C39.8581 28.1389 39.9881 30.9125 39.9448 33.6862" stroke="#020140" stroke-width="0.372414" stroke-linecap="round" stroke-linejoin="round"/>
<path d="M1.08179 54.1855C2.82876 54.5136 4.45729 55.3994 6.21907 55.6946C9.20965 56.1867 12.2002 56.3016 15.2352 56.0719C17.9593 55.8751 20.4761 54.9073 23.0818 54.284" stroke="#020140" stroke-width="0.372414" stroke-linecap="round" stroke-linejoin="round"/>
</svg>
