<svg width="16" height="16" viewBox="0 0 16 16" fill="none" xmlns="http://www.w3.org/2000/svg">
<circle cx="8" cy="8" r="7.66667" stroke="#5E5D9A" stroke-width="0.666667"/>
<path d="M6.85158 9.378C6.85158 8.68133 7.10491 8.18733 7.44691 7.80733C7.91558 7.26267 8.56158 6.984 8.56158 6.414C8.56158 5.958 8.23224 5.66667 7.71291 5.66667C7.16824 5.66667 6.68691 6.04667 6.40824 6.65467L5.05291 6.11C5.47091 4.856 6.54758 4.12133 7.85224 4.12133C9.35958 4.12133 10.2842 4.99533 10.2842 6.24933C10.2842 7.402 9.34691 7.95933 8.87824 8.542C8.66291 8.79533 8.52358 9.074 8.52358 9.378H6.85158ZM6.72491 12V10.1633H8.62491V12H6.72491Z" fill="#020140"/>
</svg>
