<svg width="283" height="365" viewBox="0 0 283 365" fill="none" xmlns="http://www.w3.org/2000/svg">
<g clip-path="url(#clip0_21_6266)">
<path d="M251.55 41.7302L244.92 37.3702C243.6 36.5002 242.69 35.1502 242.37 33.6102L239.86 21.4102L214.07 26.7202L199.19 29.7902L183.51 33.0202L173.41 35.1002L142.84 41.4002L145.35 53.6002C145.67 55.1402 145.35 56.7502 144.49 58.0602L140.13 64.6902C135.57 71.6202 133.94 80.0902 135.62 88.2202L152.03 167.85C154.23 178.55 162.16 187.15 172.63 190.24L271.33 169.9C279.73 162.93 283.61 151.89 281.41 141.19L265 61.5602C263.32 53.4302 258.49 46.3002 251.56 41.7302H251.55Z" fill="white" stroke="#020140" stroke-width="0.5" stroke-linecap="round" stroke-linejoin="round"/>
<path d="M135.82 23.5798L140.3 45.3398C141.08 49.1298 164.87 47.4298 193.43 41.5498C221.99 35.6698 244.51 27.8198 243.73 24.0398L239.25 2.27979L135.83 23.5898L135.82 23.5798Z" fill="#DEE9F5" stroke="#020140" stroke-width="0.5" stroke-linecap="round" stroke-linejoin="round"/>
<path d="M188.951 19.7768C217.512 13.8933 240.033 6.05427 239.253 2.26778C238.473 -1.51871 214.687 0.181255 186.126 6.06476C157.565 11.9483 135.044 19.7873 135.824 23.5738C136.604 27.3603 160.39 25.6603 188.951 19.7768Z" fill="#DEE9F5" stroke="#020140" stroke-width="0.5" stroke-linecap="round" stroke-linejoin="round"/>
<path d="M146.37 47.2499L141.93 25.6899" stroke="#020140" stroke-width="0.5" stroke-linecap="round" stroke-linejoin="round"/>
<path d="M156.28 46.8798L151.84 25.3198" stroke="#020140" stroke-width="0.5" stroke-linecap="round" stroke-linejoin="round"/>
<path d="M168.49 45.6699L164.05 24.1099" stroke="#020140" stroke-width="0.5" stroke-linecap="round" stroke-linejoin="round"/>
<path d="M180.71 43.9599L176.27 22.3999" stroke="#020140" stroke-width="0.5" stroke-linecap="round" stroke-linejoin="round"/>
<path d="M238.92 28.1801L234.48 6.62012" stroke="#020140" stroke-width="0.5" stroke-linecap="round" stroke-linejoin="round"/>
<path d="M229.67 31.7602L225.23 10.2002" stroke="#020140" stroke-width="0.5" stroke-linecap="round" stroke-linejoin="round"/>
<path d="M217.98 35.4802L213.54 13.9102" stroke="#020140" stroke-width="0.5" stroke-linecap="round" stroke-linejoin="round"/>
<path d="M206.07 38.7299L201.63 17.1699" stroke="#020140" stroke-width="0.5" stroke-linecap="round" stroke-linejoin="round"/>
<path d="M193.39 41.3498L188.95 19.7798" stroke="#020140" stroke-width="0.5" stroke-linecap="round" stroke-linejoin="round"/>
<path d="M202.361 7.77575L172.018 14.0263C170.909 14.2548 170.196 15.3389 170.424 16.4478L170.426 16.4576C170.655 17.5665 171.739 18.2802 172.848 18.0518L203.19 11.8012C204.299 11.5728 205.013 10.4887 204.785 9.37977L204.783 9.36998C204.554 8.26108 203.47 7.54732 202.361 7.77575Z" fill="#B8D3EE" stroke="#020140" stroke-width="0.5" stroke-linecap="round" stroke-linejoin="round"/>
<path d="M206.81 176.66C211.18 175.58 215.81 174.53 220.63 173.54C247.83 167.94 270.49 166.32 271.24 169.93C271.99 173.54 250.53 181.01 223.33 186.61C196.13 192.21 173.47 193.83 172.72 190.22C172.29 188.13 179.27 184.76 190.49 181.2" fill="white"/>
<path d="M206.81 176.66C211.18 175.58 215.81 174.53 220.63 173.54C247.83 167.94 270.49 166.32 271.24 169.93C271.99 173.54 250.53 181.01 223.33 186.61C196.13 192.21 173.47 193.83 172.72 190.22C172.29 188.13 179.27 184.76 190.49 181.2" stroke="#020140" stroke-width="0.5" stroke-linecap="round" stroke-linejoin="round"/>
<path d="M156.3 58.7399C149.57 58.9699 145.42 58.3699 145.1 56.8599L156.3 58.7399Z" fill="white"/>
<path d="M156.3 58.7399C149.57 58.9699 145.42 58.3699 145.1 56.8599" stroke="#020140" stroke-width="0.5" stroke-linecap="round" stroke-linejoin="round"/>
<path d="M172.11 57.2998C168.81 57.7398 165.72 58.0798 162.89 58.3198L172.11 57.2998Z" fill="white"/>
<path d="M172.11 57.2998C168.81 57.7398 165.72 58.0798 162.89 58.3198" stroke="#020140" stroke-width="0.5" stroke-linecap="round" stroke-linejoin="round"/>
<path d="M243.88 36.5C244.63 40.12 223.12 47.61 195.84 53.23L243.88 36.5Z" fill="white"/>
<path d="M243.88 36.5C244.63 40.12 223.12 47.61 195.84 53.23" stroke="#020140" stroke-width="0.5" stroke-linecap="round" stroke-linejoin="round"/>
<path d="M213.65 113.77L214 120.61C214.19 124.2 225.51 126.53 239.28 125.82C253.06 125.11 264.08 121.62 263.89 118.03L263.54 111.19L213.65 113.78V113.77Z" fill="white"/>
<path d="M226.69 125.58L226.04 113.13L213.65 113.77L214 120.61C214.12 123.01 219.21 124.84 226.68 125.58H226.69Z" fill="#DEE9F5"/>
<path d="M213.65 113.77L214 120.61C214.19 124.2 225.51 126.53 239.28 125.82C253.06 125.11 264.08 121.62 263.89 118.03L263.54 111.19L213.65 113.78V113.77Z" stroke="#020140" stroke-width="0.5" stroke-linecap="round" stroke-linejoin="round"/>
<path d="M238.923 118.693C252.701 117.978 263.719 114.488 263.532 110.897C263.346 107.307 252.026 104.975 238.249 105.69C224.471 106.405 213.453 109.895 213.64 113.486C213.826 117.076 225.146 119.407 238.923 118.693Z" fill="white" stroke="#020140" stroke-width="0.5" stroke-linecap="round" stroke-linejoin="round"/>
<path d="M238.747 115.297C248.934 114.769 257.12 112.95 257.031 111.234C256.942 109.519 248.612 108.557 238.425 109.085C228.238 109.614 220.052 111.433 220.141 113.148C220.23 114.864 228.56 115.826 238.747 115.297Z" fill="#DEE9F5"/>
<path d="M162.29 131.67L162.64 138.51C162.83 142.1 174.15 144.43 187.92 143.72C201.7 143.01 212.72 139.52 212.53 135.93L212.18 129.09L162.29 131.68V131.67Z" fill="white"/>
<path d="M175.33 143.48L174.68 131.03L162.29 131.67L162.64 138.51C162.76 140.91 167.85 142.74 175.32 143.48H175.33Z" fill="#DEE9F5"/>
<path d="M162.29 131.67L162.64 138.51C162.83 142.1 174.15 144.43 187.92 143.72C201.7 143.01 212.72 139.52 212.53 135.93L212.18 129.09L162.29 131.68V131.67Z" stroke="#020140" stroke-width="0.5" stroke-linecap="round" stroke-linejoin="round"/>
<path d="M187.57 136.599C201.347 135.885 212.365 132.394 212.179 128.804C211.993 125.213 200.673 122.882 186.895 123.597C173.118 124.312 162.1 127.802 162.286 131.392C162.472 134.983 173.792 137.314 187.57 136.599Z" fill="white" stroke="#020140" stroke-width="0.5" stroke-linecap="round" stroke-linejoin="round"/>
<path d="M187.394 133.204C197.581 132.675 205.767 130.856 205.678 129.141C205.589 127.426 197.258 126.464 187.071 126.992C176.884 127.521 168.698 129.34 168.787 131.055C168.876 132.77 177.207 133.732 187.394 133.204Z" fill="#DEE9F5"/>
<path d="M187.71 167.53L188.06 174.37C188.25 177.96 199.57 180.29 213.34 179.58C227.12 178.87 238.14 175.38 237.95 171.79L237.6 164.95L187.71 167.54V167.53Z" fill="white"/>
<path d="M200.75 179.34L200.1 166.89L187.71 167.53L188.06 174.37C188.18 176.77 193.27 178.6 200.74 179.34H200.75Z" fill="#DEE9F5"/>
<path d="M187.71 167.53L188.06 174.37C188.25 177.96 199.57 180.29 213.34 179.58C227.12 178.87 238.14 175.38 237.95 171.79L237.6 164.95L187.71 167.54V167.53Z" stroke="#020140" stroke-width="0.5" stroke-linecap="round" stroke-linejoin="round"/>
<path d="M212.984 172.454C226.761 171.74 237.779 168.249 237.593 164.659C237.406 161.068 226.087 158.737 212.309 159.452C198.531 160.167 187.514 163.657 187.7 167.247C187.886 170.838 199.206 173.169 212.984 172.454Z" fill="white" stroke="#020140" stroke-width="0.5" stroke-linecap="round" stroke-linejoin="round"/>
<path d="M212.808 169.059C222.995 168.53 231.181 166.711 231.092 164.996C231.003 163.281 222.672 162.319 212.485 162.847C202.298 163.376 194.112 165.195 194.201 166.91C194.29 168.625 202.621 169.587 212.808 169.059Z" fill="#DEE9F5"/>
<path d="M201.91 94.6201L200.28 101.27C199.42 104.76 209.59 110.26 222.99 113.54C236.39 116.83 247.95 116.66 248.8 113.17L250.43 106.52L201.91 94.6201Z" fill="white"/>
<path d="M210.99 109.69L213.96 97.5801L201.91 94.6201L200.28 101.27C199.71 103.6 204.05 106.82 210.99 109.69Z" fill="#DEE9F5"/>
<path d="M201.91 94.6201L200.28 101.27C199.42 104.76 209.59 110.26 222.99 113.54C236.39 116.83 247.95 116.66 248.8 113.17L250.43 106.52L201.91 94.6201Z" stroke="#020140" stroke-width="0.5" stroke-linecap="round" stroke-linejoin="round"/>
<path d="M250.485 106.25C251.341 102.759 241.173 97.2638 227.774 93.9777C214.375 90.6915 202.819 90.8583 201.963 94.3502C201.106 97.8421 211.274 103.337 224.673 106.623C238.072 109.909 249.628 109.742 250.485 106.25Z" fill="white" stroke="#020140" stroke-width="0.5" stroke-linecap="round" stroke-linejoin="round"/>
<path d="M244.162 104.7C244.571 103.032 236.871 99.7096 226.964 97.2799C217.057 94.8501 208.694 94.2327 208.285 95.9009C207.876 97.5691 215.575 100.891 225.483 103.321C235.39 105.751 243.753 106.368 244.162 104.7Z" fill="#DEE9F5"/>
<path d="M184.67 107.01L190.19 111.06C193.09 113.19 202.06 105.9 210.23 94.7802C218.4 83.6602 222.67 72.9202 219.77 70.7902L214.25 66.7402L184.67 107.01Z" fill="white"/>
<path d="M202.06 104.39L192.01 97.0103L184.66 107.01L190.18 111.06C192.11 112.48 196.76 109.7 202.06 104.39Z" fill="#DEE9F5"/>
<path d="M184.67 107.01L190.19 111.06C193.09 113.19 202.06 105.9 210.23 94.7802C218.4 83.6602 222.67 72.9202 219.77 70.7902L214.25 66.7402L184.67 107.01Z" stroke="#020140" stroke-width="0.5" stroke-linecap="round" stroke-linejoin="round"/>
<path d="M204.476 90.574C212.643 79.4553 216.915 68.7164 214.017 66.5879C211.12 64.4594 202.15 71.7473 193.982 82.866C185.815 93.9846 181.543 104.724 184.44 106.852C187.338 108.981 196.308 101.693 204.476 90.574Z" fill="white" stroke="#020140" stroke-width="0.5" stroke-linecap="round" stroke-linejoin="round"/>
<path d="M201.735 88.561C207.774 80.34 211.548 72.8512 210.163 71.8343C208.779 70.8175 202.762 76.6576 196.723 84.8787C190.684 93.0997 186.91 100.588 188.295 101.605C189.679 102.622 195.696 96.782 201.735 88.561Z" fill="#DEE9F5"/>
<path d="M207.72 158.65L211.8 164.15C213.94 167.04 224.66 162.72 235.75 154.51C246.84 146.3 254.09 137.3 251.95 134.41L247.87 128.91L207.73 158.65H207.72Z" fill="white"/>
<path d="M225.11 161.29L217.69 151.27L207.72 158.66L211.8 164.16C213.23 166.09 218.48 164.8 225.12 161.29H225.11Z" fill="#DEE9F5"/>
<path d="M207.72 158.65L211.8 164.15C213.94 167.04 224.66 162.72 235.75 154.51C246.84 146.3 254.09 137.3 251.95 134.41L247.87 128.91L207.73 158.65H207.72Z" stroke="#020140" stroke-width="0.5" stroke-linecap="round" stroke-linejoin="round"/>
<path d="M231.505 148.768C242.59 140.554 249.84 131.553 247.699 128.665C245.559 125.776 234.838 130.093 223.754 138.307C212.669 146.521 205.419 155.521 207.56 158.41C209.7 161.299 220.421 156.982 231.505 148.768Z" fill="white" stroke="#020140" stroke-width="0.5" stroke-linecap="round" stroke-linejoin="round"/>
<path d="M229.481 146.036C237.677 139.962 243.492 133.92 242.469 132.54C241.446 131.16 233.973 134.965 225.778 141.038C217.582 147.112 211.767 153.154 212.79 154.534C213.813 155.914 221.285 152.109 229.481 146.036Z" fill="#DEE9F5"/>
<path d="M280.98 97.9997C277.09 96.0297 274.42 92.9997 272.59 89.1997C270.76 92.9897 268.08 96.0397 264.19 98.0097C268.08 99.9797 270.76 103.01 272.59 106.81C274.42 103.02 277.09 99.9697 280.98 97.9997Z" fill="#DEE9F5" stroke="#020140" stroke-width="0.5" stroke-linecap="round" stroke-linejoin="round"/>
<path d="M264.2 76.4699C261.94 75.3199 260.39 73.5599 259.33 71.3599C258.27 73.5599 256.71 75.3299 254.45 76.4799C256.71 77.6299 258.27 79.3899 259.33 81.5899C260.39 79.3899 261.95 77.6199 264.2 76.4699Z" fill="#DEE9F5" stroke="#020140" stroke-width="0.5" stroke-linecap="round" stroke-linejoin="round"/>
<path d="M206.83 220.1L204.76 226.62C203.67 230.05 213.45 236.21 226.59 240.39C239.74 244.57 251.28 245.18 252.37 241.76L254.44 235.24L206.83 220.1Z" fill="white"/>
<path d="M214.88 235.74L218.66 223.86L206.84 220.1L204.77 226.62C204.04 228.91 208.16 232.42 214.89 235.74H214.88Z" fill="#DEE9F5"/>
<path d="M206.83 220.1L204.76 226.62C203.67 230.05 213.45 236.21 226.59 240.39C239.74 244.57 251.28 245.18 252.37 241.76L254.44 235.24L206.83 220.1Z" stroke="#020140" stroke-width="0.5" stroke-linecap="round" stroke-linejoin="round"/>
<path d="M254.53 234.989C255.619 231.563 245.845 225.396 232.697 221.215C219.55 217.035 208.009 216.423 206.919 219.849C205.83 223.276 215.604 229.442 228.752 233.623C241.899 237.804 253.44 238.415 254.53 234.989Z" fill="white" stroke="#020140" stroke-width="0.5" stroke-linecap="round" stroke-linejoin="round"/>
<path d="M248.326 233.016C248.846 231.38 241.388 227.547 231.667 224.456C221.946 221.364 213.643 220.186 213.123 221.822C212.602 223.459 220.061 227.292 229.782 230.383C239.503 233.474 247.805 234.653 248.326 233.016Z" fill="#DEE9F5"/>
<path d="M147.58 36.6198L105.08 29.6898C99.1701 28.7298 93.5901 32.7398 92.6201 38.6498L89.2201 59.4798C88.2601 65.3898 92.2701 70.9698 98.1801 71.9398L99.5001 72.1598L97.6301 83.6298L120.29 75.5598L140.68 78.8898C146.59 79.8498 152.17 75.8398 153.14 69.9298L156.54 49.0998C157.5 43.1898 153.49 37.6098 147.58 36.6398V36.6198Z" fill="#B8D3EE" stroke="#020140" stroke-width="0.5" stroke-linecap="round" stroke-linejoin="round"/>
<path d="M148.67 29.9299L106.17 22.9999C100.26 22.0399 94.6802 26.0499 93.7102 31.9599L90.3102 52.7899C89.3502 58.6999 93.3602 64.2799 99.2702 65.2499L100.59 65.4699L98.7202 76.9399L121.38 68.8699L141.77 72.1999C147.68 73.1599 153.26 69.1499 154.23 63.2399L157.63 42.4099C158.59 36.4999 154.58 30.9199 148.67 29.9499V29.9299Z" fill="#DEE9F5" stroke="#020140" stroke-width="0.5" stroke-linecap="round" stroke-linejoin="round"/>
<path d="M111.89 50.4201C114.475 50.4201 116.57 48.3248 116.57 45.7401C116.57 43.1554 114.475 41.0601 111.89 41.0601C109.306 41.0601 107.21 43.1554 107.21 45.7401C107.21 48.3248 109.306 50.4201 111.89 50.4201Z" fill="white" stroke="#020140" stroke-width="0.5" stroke-linecap="round" stroke-linejoin="round"/>
<path d="M123.95 52.3903C126.535 52.3903 128.63 50.295 128.63 47.7103C128.63 45.1256 126.535 43.0303 123.95 43.0303C121.366 43.0303 119.27 45.1256 119.27 47.7103C119.27 50.295 121.366 52.3903 123.95 52.3903Z" fill="white" stroke="#020140" stroke-width="0.5" stroke-linecap="round" stroke-linejoin="round"/>
<path d="M136.01 54.3502C138.595 54.3502 140.69 52.2549 140.69 49.6702C140.69 47.0855 138.595 44.9902 136.01 44.9902C133.426 44.9902 131.33 47.0855 131.33 49.6702C131.33 52.2549 133.426 54.3502 136.01 54.3502Z" fill="white" stroke="#020140" stroke-width="0.5" stroke-linecap="round" stroke-linejoin="round"/>
<path d="M-9.90997 165.21L-16.85 182.2C-29.22 212.49 -0.819973 252.74 46.59 272.11C70.75 281.98 95.18 284.52 114.97 280.62L143.11 233.12L-9.90997 165.21Z" fill="#B8D3EE" stroke="#020140" stroke-width="0.5" stroke-linecap="round" stroke-linejoin="round"/>
<path d="M113.57 147.06L91.1599 201.9L163.71 182.69L170.65 165.7L113.57 147.06Z" fill="#DEE9F5" stroke="#020140" stroke-width="0.5" stroke-linecap="round" stroke-linejoin="round"/>
<path d="M121.91 263.64L114.97 280.63C134.01 276.89 148.76 267.19 154.83 252.34C159.17 241.72 161.77 235.35 161.77 235.35L121.91 263.64Z" fill="#DEE9F5" stroke="#020140" stroke-width="0.5" stroke-linecap="round" stroke-linejoin="round"/>
<path d="M141.54 198.05L68.99 217.26L153.74 218.11C150.98 211.3 146.86 204.53 141.55 198.05H141.54Z" fill="white" stroke="#020140" stroke-width="0.5" stroke-linecap="round" stroke-linejoin="round"/>
<path d="M98.33 145.43C50.92 126.06 2.45996 134.92 -9.92004 165.21C-22.29 195.5 6.10996 235.75 53.52 255.12C77.68 264.99 102.11 267.53 121.9 263.63L75.92 200.27L98.32 145.42L98.33 145.43Z" fill="#B8D3EE" stroke="#020140" stroke-width="0.5" stroke-linecap="round" stroke-linejoin="round"/>
<path d="M120.51 130.07L98.1099 184.92L170.66 165.71C159.01 151.5 141.65 138.71 120.51 130.08V130.07Z" fill="#DEE9F5" stroke="#020140" stroke-width="0.5" stroke-linecap="round" stroke-linejoin="round"/>
<path d="M75.9299 200.28L121.91 263.64C140.95 259.9 155.7 250.2 161.77 235.35C166.11 224.73 165.43 212.88 160.67 201.13L75.9199 200.28H75.9299Z" fill="#DEE9F5" stroke="#020140" stroke-width="0.5" stroke-linecap="round" stroke-linejoin="round"/>
<path d="M148.48 181.07L75.9299 200.28L160.68 201.13C157.92 194.32 153.8 187.55 148.49 181.07H148.48Z" fill="white" stroke="#020140" stroke-width="0.5" stroke-linecap="round" stroke-linejoin="round"/>
<path d="M43.8201 157.88L49.8301 161.16C52.9901 162.88 60.9001 154.46 67.5101 142.35C74.1201 130.24 76.9201 119.02 73.7601 117.3L67.7501 114.02L43.8201 157.88Z" fill="white"/>
<path d="M60.7101 152.96L49.7601 146.99L43.8201 157.88L49.8301 161.16C51.9401 162.31 56.1701 158.93 60.7101 152.96Z" fill="#DEE9F5"/>
<path d="M43.8201 157.88L49.8301 161.16C52.9901 162.88 60.9001 154.46 67.5101 142.35C74.1201 130.24 76.9201 119.02 73.7601 117.3L67.7501 114.02L43.8201 157.88Z" stroke="#020140" stroke-width="0.5" stroke-linecap="round" stroke-linejoin="round"/>
<path d="M61.2544 138.941C67.8627 126.83 70.6613 115.617 67.5052 113.894C64.3491 112.172 56.4335 120.594 49.8252 132.704C43.2169 144.814 40.4184 156.028 43.5744 157.75C46.7305 159.472 54.6461 151.051 61.2544 138.941Z" fill="white" stroke="#020140" stroke-width="0.5" stroke-linecap="round" stroke-linejoin="round"/>
<path d="M58.2698 137.312C63.1559 128.358 65.8946 120.432 64.3869 119.609C62.8791 118.786 57.6959 125.378 52.8097 134.333C47.9236 143.287 45.1849 151.213 46.6927 152.036C48.2004 152.858 53.3836 146.266 58.2698 137.312Z" fill="#DEE9F5"/>
<path d="M127.72 318.5L127.3 325.33C127.08 328.92 138.07 332.51 151.84 333.35C165.61 334.19 176.95 331.96 177.17 328.37L177.59 321.54L127.72 318.5Z" fill="white"/>
<path d="M139.35 331.7L140.11 319.25L127.73 318.5L127.31 325.33C127.16 327.73 132.02 330.12 139.35 331.7Z" fill="#DEE9F5"/>
<path d="M127.72 318.5L127.3 325.33C127.08 328.92 138.07 332.51 151.84 333.35C165.61 334.19 176.95 331.96 177.17 328.37L177.59 321.54L127.72 318.5Z" stroke="#020140" stroke-width="0.5" stroke-linecap="round" stroke-linejoin="round"/>
<path d="M177.612 321.285C177.831 317.696 166.845 314.106 153.075 313.266C139.304 312.426 127.964 314.655 127.745 318.243C127.526 321.832 138.512 325.422 152.282 326.262C166.053 327.102 177.393 324.873 177.612 321.285Z" fill="white" stroke="#020140" stroke-width="0.5" stroke-linecap="round" stroke-linejoin="round"/>
<path d="M171.114 320.889C171.219 319.174 163.049 317.281 152.868 316.66C142.686 316.039 134.347 316.925 134.243 318.64C134.138 320.354 142.307 322.248 152.489 322.868C162.671 323.489 171.009 322.603 171.114 320.889Z" fill="#DEE9F5"/>
<path d="M128.14 311.52L127.72 318.35C127.5 321.94 138.49 325.53 152.26 326.37C166.03 327.21 177.37 324.98 177.59 321.39L178.01 314.56L128.14 311.52Z" fill="white"/>
<path d="M139.77 324.72L140.53 312.27L128.15 311.52L127.73 318.35C127.58 320.75 132.44 323.14 139.77 324.72Z" fill="#DEE9F5"/>
<path d="M128.14 311.52L127.72 318.35C127.5 321.94 138.49 325.53 152.26 326.37C166.03 327.21 177.37 324.98 177.59 321.39L178.01 314.56L128.14 311.52Z" stroke="#020140" stroke-width="0.5" stroke-linecap="round" stroke-linejoin="round"/>
<path d="M178.041 314.301C178.26 310.712 167.274 307.122 153.504 306.283C139.733 305.443 128.393 307.671 128.174 311.26C127.955 314.849 138.941 318.439 152.711 319.278C166.482 320.118 177.822 317.89 178.041 314.301Z" fill="white" stroke="#020140" stroke-width="0.5" stroke-linecap="round" stroke-linejoin="round"/>
<path d="M171.543 313.905C171.648 312.19 163.479 310.297 153.297 309.676C143.115 309.055 134.776 309.942 134.672 311.656C134.567 313.37 142.736 315.264 152.918 315.885C163.1 316.506 171.439 315.619 171.543 313.905Z" fill="#DEE9F5"/>
<path d="M128.57 304.54L128.15 311.37C127.93 314.96 138.92 318.55 152.69 319.39C166.46 320.23 177.8 318 178.02 314.41L178.44 307.58L128.57 304.54Z" fill="white"/>
<path d="M140.2 317.74L140.96 305.29L128.58 304.54L128.16 311.37C128.01 313.77 132.87 316.16 140.2 317.74Z" fill="#DEE9F5"/>
<path d="M128.57 304.54L128.15 311.37C127.93 314.96 138.92 318.55 152.69 319.39C166.46 320.23 177.8 318 178.02 314.41L178.44 307.58L128.57 304.54Z" stroke="#020140" stroke-width="0.5" stroke-linecap="round" stroke-linejoin="round"/>
<path d="M178.46 307.327C178.679 303.738 167.693 300.148 153.922 299.308C140.152 298.468 128.811 300.697 128.592 304.285C128.373 307.874 139.359 311.464 153.13 312.304C166.9 313.144 178.241 310.915 178.46 307.327Z" fill="white" stroke="#020140" stroke-width="0.5" stroke-linecap="round" stroke-linejoin="round"/>
<path d="M171.962 306.93C172.066 305.216 163.897 303.322 153.715 302.702C143.533 302.081 135.195 302.967 135.09 304.681C134.986 306.396 143.155 308.289 153.337 308.91C163.518 309.531 171.857 308.645 171.962 306.93Z" fill="#DEE9F5"/>
<path d="M129 297.56L128.58 304.39C128.36 307.98 139.35 311.57 153.12 312.41C166.89 313.25 178.23 311.02 178.45 307.43L178.87 300.6L129 297.56Z" fill="white"/>
<path d="M140.62 310.76L141.38 298.31L129 297.56L128.58 304.39C128.43 306.79 133.29 309.18 140.62 310.76Z" fill="#DEE9F5"/>
<path d="M129 297.56L128.58 304.39C128.36 307.98 139.35 311.57 153.12 312.41C166.89 313.25 178.23 311.02 178.45 307.43L178.87 300.6L129 297.56Z" stroke="#020140" stroke-width="0.5" stroke-linecap="round" stroke-linejoin="round"/>
<path d="M178.889 300.333C179.107 296.744 168.122 293.154 154.351 292.314C140.581 291.475 129.24 293.703 129.021 297.292C128.802 300.88 139.788 304.47 153.559 305.31C167.329 306.15 178.67 303.922 178.889 300.333Z" fill="white" stroke="#020140" stroke-width="0.5" stroke-linecap="round" stroke-linejoin="round"/>
<path d="M172.391 299.936C172.495 298.222 164.326 296.329 154.144 295.708C143.962 295.087 135.624 295.973 135.519 297.688C135.415 299.402 143.584 301.295 153.766 301.916C163.947 302.537 172.286 301.651 172.391 299.936Z" fill="#DEE9F5"/>
<path d="M129.42 290.57L129 297.4C128.78 300.99 139.77 304.58 153.54 305.42C167.31 306.26 178.65 304.03 178.87 300.44L179.29 293.61L129.42 290.57Z" fill="white"/>
<path d="M141.05 303.78L141.81 291.33L129.43 290.58L129.01 297.41C128.86 299.81 133.72 302.2 141.05 303.78Z" fill="#DEE9F5"/>
<path d="M129.42 290.57L129 297.4C128.78 300.99 139.77 304.58 153.54 305.42C167.31 306.26 178.65 304.03 178.87 300.44L179.29 293.61L129.42 290.57Z" stroke="#020140" stroke-width="0.5" stroke-linecap="round" stroke-linejoin="round"/>
<path d="M179.317 293.359C179.536 289.77 168.55 286.18 154.78 285.34C141.009 284.5 129.669 286.729 129.45 290.318C129.231 293.906 140.217 297.496 153.987 298.336C167.758 299.176 179.098 296.947 179.317 293.359Z" fill="white" stroke="#020140" stroke-width="0.5" stroke-linecap="round" stroke-linejoin="round"/>
<path d="M172.819 292.962C172.924 291.248 164.755 289.355 154.573 288.734C144.391 288.113 136.052 288.999 135.948 290.714C135.843 292.428 144.013 294.321 154.194 294.942C164.376 295.563 172.715 294.677 172.819 292.962Z" fill="#DEE9F5"/>
<path d="M129.85 283.59L129.43 290.42C129.21 294.01 140.2 297.6 153.97 298.44C167.74 299.28 179.08 297.05 179.3 293.46L179.72 286.63L129.85 283.59Z" fill="white"/>
<path d="M141.47 296.8L142.23 284.35L129.85 283.6L129.43 290.43C129.28 292.83 134.14 295.22 141.47 296.8Z" fill="#DEE9F5"/>
<path d="M129.85 283.59L129.43 290.42C129.21 294.01 140.2 297.6 153.97 298.44C167.74 299.28 179.08 297.05 179.3 293.46L179.72 286.63L129.85 283.59Z" stroke="#020140" stroke-width="0.5" stroke-linecap="round" stroke-linejoin="round"/>
<path d="M179.746 286.374C179.965 282.786 168.979 279.196 155.209 278.356C141.438 277.516 130.098 279.744 129.879 283.333C129.66 286.922 140.646 290.512 154.416 291.352C168.187 292.192 179.527 289.963 179.746 286.374Z" fill="white" stroke="#020140" stroke-width="0.5" stroke-linecap="round" stroke-linejoin="round"/>
<path d="M173.249 285.978C173.353 284.264 165.184 282.37 155.002 281.749C144.82 281.128 136.482 282.015 136.377 283.729C136.273 285.444 144.442 287.337 154.623 287.958C164.805 288.579 173.144 287.692 173.249 285.978Z" fill="#DEE9F5"/>
<path d="M130.27 276.61L129.85 283.44C129.63 287.03 140.62 290.62 154.39 291.46C168.16 292.3 179.5 290.07 179.72 286.48L180.14 279.65L130.27 276.61Z" fill="white"/>
<path d="M141.9 289.81L142.66 277.36L130.28 276.61L129.86 283.44C129.71 285.84 134.57 288.23 141.9 289.81Z" fill="#DEE9F5"/>
<path d="M130.27 276.61L129.85 283.44C129.63 287.03 140.62 290.62 154.39 291.46C168.16 292.3 179.5 290.07 179.72 286.48L180.14 279.65L130.27 276.61Z" stroke="#020140" stroke-width="0.5" stroke-linecap="round" stroke-linejoin="round"/>
<path d="M180.165 279.4C180.384 275.811 169.398 272.221 155.628 271.381C141.857 270.541 130.517 272.77 130.298 276.359C130.079 279.947 141.065 283.537 154.835 284.377C168.606 285.217 179.946 282.989 180.165 279.4Z" fill="white" stroke="#020140" stroke-width="0.5" stroke-linecap="round" stroke-linejoin="round"/>
<path d="M173.667 279.004C173.772 277.289 165.602 275.396 155.421 274.775C145.239 274.154 136.9 275.041 136.796 276.755C136.691 278.47 144.86 280.363 155.042 280.984C165.224 281.605 173.562 280.718 173.667 279.004Z" fill="#DEE9F5"/>
<path d="M130.7 269.63L130.28 276.46C130.06 280.05 141.05 283.64 154.82 284.48C168.59 285.32 179.93 283.09 180.15 279.5L180.57 272.67L130.7 269.63Z" fill="white"/>
<path d="M142.32 282.83L143.08 270.38L130.7 269.63L130.28 276.46C130.13 278.86 134.99 281.25 142.32 282.83Z" fill="#DEE9F5"/>
<path d="M130.7 269.63L130.28 276.46C130.06 280.05 141.05 283.64 154.82 284.48C168.59 285.32 179.93 283.09 180.15 279.5L180.57 272.67L130.7 269.63Z" stroke="#020140" stroke-width="0.5" stroke-linecap="round" stroke-linejoin="round"/>
<path d="M180.594 272.416C180.813 268.828 169.827 265.238 156.057 264.398C142.286 263.558 130.946 265.786 130.727 269.375C130.508 272.964 141.494 276.554 155.264 277.394C169.035 278.234 180.375 276.005 180.594 272.416Z" fill="white" stroke="#020140" stroke-width="0.5" stroke-linecap="round" stroke-linejoin="round"/>
<path d="M174.096 272.02C174.201 270.306 166.032 268.412 155.85 267.791C145.668 267.17 137.329 268.057 137.225 269.771C137.12 271.486 145.289 273.379 155.471 274C165.653 274.621 173.992 273.734 174.096 272.02Z" fill="#DEE9F5"/>
<path d="M131.12 262.65L130.7 269.48C130.48 273.07 141.47 276.66 155.24 277.5C169.01 278.34 180.35 276.11 180.57 272.52L180.99 265.69L131.12 262.65Z" fill="white"/>
<path d="M142.75 275.85L143.51 263.4L131.13 262.65L130.71 269.48C130.56 271.88 135.42 274.27 142.75 275.85Z" fill="#DEE9F5"/>
<path d="M131.12 262.65L130.7 269.48C130.48 273.07 141.47 276.66 155.24 277.5C169.01 278.34 180.35 276.11 180.57 272.52L180.99 265.69L131.12 262.65Z" stroke="#020140" stroke-width="0.5" stroke-linecap="round" stroke-linejoin="round"/>
<path d="M181.022 265.442C181.241 261.854 170.256 258.264 156.485 257.424C142.715 256.584 131.374 258.812 131.155 262.401C130.936 265.99 141.922 269.58 155.692 270.42C169.463 271.259 180.804 269.031 181.022 265.442Z" fill="white" stroke="#020140" stroke-width="0.5" stroke-linecap="round" stroke-linejoin="round"/>
<path d="M174.524 265.046C174.629 263.331 166.46 261.438 156.278 260.817C146.096 260.196 137.758 261.083 137.653 262.797C137.548 264.512 145.718 266.405 155.899 267.026C166.081 267.647 174.42 266.76 174.524 265.046Z" fill="#DEE9F5"/>
<path d="M131.55 255.67L131.13 262.5C130.91 266.09 141.9 269.68 155.67 270.52C169.44 271.36 180.78 269.13 181 265.54L181.42 258.71L131.55 255.67Z" fill="white"/>
<path d="M143.17 268.87L143.93 256.42L131.55 255.67L131.13 262.5C130.98 264.9 135.84 267.29 143.17 268.87Z" fill="#DEE9F5"/>
<path d="M131.55 255.67L131.13 262.5C130.91 266.09 141.9 269.68 155.67 270.52C169.44 271.36 180.78 269.13 181 265.54L181.42 258.71L131.55 255.67Z" stroke="#020140" stroke-width="0.5" stroke-linecap="round" stroke-linejoin="round"/>
<path d="M181.452 258.448C181.67 254.859 170.685 251.269 156.914 250.429C143.144 249.589 131.803 251.818 131.584 255.406C131.365 258.995 142.351 262.585 156.122 263.425C169.892 264.265 181.233 262.036 181.452 258.448Z" fill="white" stroke="#020140" stroke-width="0.5" stroke-linecap="round" stroke-linejoin="round"/>
<path d="M174.954 258.052C175.058 256.337 166.889 254.444 156.707 253.823C146.525 253.202 138.187 254.089 138.082 255.803C137.978 257.517 146.147 259.411 156.329 260.032C166.51 260.653 174.849 259.766 174.954 258.052Z" fill="#DEE9F5"/>
<path d="M131.97 248.69L131.55 255.52C131.33 259.11 142.32 262.7 156.09 263.54C169.86 264.38 181.2 262.15 181.42 258.56L181.84 251.73L131.97 248.69Z" fill="white"/>
<path d="M143.6 261.89L144.36 249.44L131.98 248.69L131.56 255.52C131.41 257.92 136.27 260.31 143.6 261.89Z" fill="#DEE9F5"/>
<path d="M131.97 248.69L131.55 255.52C131.33 259.11 142.32 262.7 156.09 263.54C169.86 264.38 181.2 262.15 181.42 258.56L181.84 251.73L131.97 248.69Z" stroke="#020140" stroke-width="0.5" stroke-linecap="round" stroke-linejoin="round"/>
<path d="M181.87 251.474C182.089 247.885 171.103 244.295 157.333 243.455C143.562 242.615 132.222 244.844 132.003 248.432C131.784 252.021 142.77 255.611 156.54 256.451C170.311 257.291 181.651 255.062 181.87 251.474Z" fill="white" stroke="#020140" stroke-width="0.5" stroke-linecap="round" stroke-linejoin="round"/>
<path d="M175.372 251.078C175.477 249.363 167.308 247.47 157.126 246.849C146.944 246.228 138.605 247.114 138.501 248.829C138.396 250.543 146.565 252.436 156.747 253.057C166.929 253.678 175.268 252.792 175.372 251.078Z" fill="#DEE9F5"/>
<path d="M132.4 241.71L131.98 248.54C131.76 252.13 142.75 255.72 156.52 256.56C170.29 257.4 181.63 255.17 181.85 251.58L182.27 244.75L132.4 241.71Z" fill="white"/>
<path d="M144.02 254.91L144.78 242.46L132.4 241.71L131.98 248.54C131.83 250.94 136.69 253.33 144.02 254.91Z" fill="#DEE9F5"/>
<path d="M132.4 241.71L131.98 248.54C131.76 252.13 142.75 255.72 156.52 256.56C170.29 257.4 181.63 255.17 181.85 251.58L182.27 244.75L132.4 241.71Z" stroke="#020140" stroke-width="0.5" stroke-linecap="round" stroke-linejoin="round"/>
<path d="M182.289 244.489C182.508 240.9 171.522 237.31 157.752 236.471C143.981 235.631 132.641 237.859 132.422 241.448C132.203 245.037 143.189 248.627 156.959 249.466C170.73 250.306 182.07 248.078 182.289 244.489Z" fill="white" stroke="#020140" stroke-width="0.5" stroke-linecap="round" stroke-linejoin="round"/>
<path d="M175.792 244.093C175.896 242.378 167.727 240.485 157.545 239.864C147.363 239.243 139.025 240.13 138.92 241.844C138.815 243.558 146.985 245.452 157.166 246.073C167.348 246.694 175.687 245.807 175.792 244.093Z" fill="#DEE9F5"/>
<path d="M132.82 234.73L132.4 241.56C132.18 245.15 143.17 248.74 156.94 249.58C170.71 250.42 182.05 248.19 182.27 244.6L182.69 237.77L132.82 234.73Z" fill="white"/>
<path d="M144.45 247.93L145.21 235.48L132.83 234.73L132.41 241.56C132.26 243.96 137.12 246.35 144.45 247.93Z" fill="#DEE9F5"/>
<path d="M132.82 234.73L132.4 241.56C132.18 245.15 143.17 248.74 156.94 249.58C170.71 250.42 182.05 248.19 182.27 244.6L182.69 237.77L132.82 234.73Z" stroke="#020140" stroke-width="0.5" stroke-linecap="round" stroke-linejoin="round"/>
<path d="M182.718 237.515C182.937 233.926 171.951 230.336 158.181 229.496C144.41 228.657 133.07 230.885 132.851 234.474C132.632 238.062 143.618 241.652 157.388 242.492C171.159 243.332 182.499 241.104 182.718 237.515Z" fill="white" stroke="#020140" stroke-width="0.5" stroke-linecap="round" stroke-linejoin="round"/>
<path d="M176.22 237.119C176.325 235.404 168.155 233.511 157.974 232.89C147.792 232.269 139.453 233.155 139.348 234.87C139.244 236.584 147.413 238.478 157.595 239.098C167.777 239.719 176.115 238.833 176.22 237.119Z" fill="#DEE9F5"/>
<path d="M163.67 335.43L164.18 342.26C164.45 345.85 175.82 347.91 189.58 346.88C203.34 345.84 214.27 342.1 214 338.51L213.49 331.68L163.67 335.43Z" fill="white"/>
<path d="M176.98 346.93L176.04 334.5L163.67 335.43L164.18 342.26C164.36 344.65 169.49 346.37 176.98 346.94V346.93Z" fill="#DEE9F5"/>
<path d="M163.67 335.43L164.18 342.26C164.45 345.85 175.82 347.91 189.58 346.88C203.34 345.84 214.27 342.1 214 338.51L213.49 331.68L163.67 335.43Z" stroke="#020140" stroke-width="0.5" stroke-linecap="round" stroke-linejoin="round"/>
<path d="M189.067 339.765C202.824 338.728 213.757 334.981 213.487 331.396C213.216 327.81 201.845 325.745 188.088 326.781C174.331 327.818 163.398 331.565 163.668 335.15C163.938 338.735 175.309 340.801 189.067 339.765Z" fill="white" stroke="#020140" stroke-width="0.5" stroke-linecap="round" stroke-linejoin="round"/>
<path d="M188.811 336.374C198.983 335.608 207.124 333.598 206.995 331.885C206.866 330.172 198.515 329.405 188.344 330.172C178.172 330.939 170.03 332.949 170.16 334.661C170.289 336.374 178.639 337.141 188.811 336.374Z" fill="#DEE9F5"/>
<path d="M163.15 328.45L163.66 335.28C163.93 338.87 175.3 340.93 189.06 339.9C202.82 338.86 213.75 335.12 213.48 331.53L212.97 324.7L163.15 328.45Z" fill="white"/>
<path d="M176.45 339.959L175.51 327.529L163.14 328.459L163.65 335.289C163.83 337.679 168.96 339.399 176.45 339.969V339.959Z" fill="#DEE9F5"/>
<path d="M163.15 328.45L163.66 335.28C163.93 338.87 175.3 340.93 189.06 339.9C202.82 338.86 213.75 335.12 213.48 331.53L212.97 324.7L163.15 328.45Z" stroke="#020140" stroke-width="0.5" stroke-linecap="round" stroke-linejoin="round"/>
<path d="M188.533 332.784C202.29 331.747 213.224 328 212.953 324.415C212.683 320.83 201.312 318.764 187.555 319.801C173.798 320.838 162.865 324.585 163.135 328.17C163.405 331.755 174.776 333.821 188.533 332.784Z" fill="white" stroke="#020140" stroke-width="0.5" stroke-linecap="round" stroke-linejoin="round"/>
<path d="M188.278 329.394C198.45 328.627 206.591 326.617 206.462 324.905C206.333 323.192 197.982 322.425 187.81 323.192C177.638 323.958 169.497 325.968 169.626 327.681C169.755 329.394 178.106 330.161 188.278 329.394Z" fill="#DEE9F5"/>
<path d="M162.62 321.479L163.13 328.309C163.4 331.899 174.77 333.959 188.53 332.929C202.29 331.889 213.22 328.149 212.95 324.559L212.44 317.729L162.62 321.479Z" fill="white"/>
<path d="M175.93 332.979L174.99 320.549L162.62 321.479L163.13 328.309C163.31 330.699 168.44 332.419 175.93 332.989V332.979Z" fill="#DEE9F5"/>
<path d="M162.62 321.479L163.13 328.309C163.4 331.899 174.77 333.959 188.53 332.929C202.29 331.889 213.22 328.149 212.95 324.559L212.44 317.729L162.62 321.479Z" stroke="#020140" stroke-width="0.5" stroke-linecap="round" stroke-linejoin="round"/>
<path d="M188.011 325.813C201.768 324.776 212.701 321.029 212.431 317.444C212.161 313.859 200.79 311.793 187.033 312.83C173.276 313.867 162.342 317.613 162.613 321.199C162.883 324.784 174.254 326.85 188.011 325.813Z" fill="white" stroke="#020140" stroke-width="0.5" stroke-linecap="round" stroke-linejoin="round"/>
<path d="M187.756 322.423C197.927 321.656 206.069 319.646 205.94 317.933C205.811 316.221 197.46 315.454 187.288 316.22C177.116 316.987 168.975 318.997 169.104 320.71C169.233 322.422 177.584 323.189 187.756 322.423Z" fill="#DEE9F5"/>
<path d="M162.09 314.51L162.6 321.34C162.87 324.93 174.24 326.99 188 325.96C201.76 324.92 212.69 321.18 212.42 317.59L211.91 310.76L162.09 314.51Z" fill="white"/>
<path d="M175.4 326.01L174.46 313.58L162.09 314.51L162.6 321.34C162.78 323.73 167.91 325.45 175.4 326.02V326.01Z" fill="#DEE9F5"/>
<path d="M162.09 314.51L162.6 321.34C162.87 324.93 174.24 326.99 188 325.96C201.76 324.92 212.69 321.18 212.42 317.59L211.91 310.76L162.09 314.51Z" stroke="#020140" stroke-width="0.5" stroke-linecap="round" stroke-linejoin="round"/>
<path d="M187.479 318.843C201.236 317.806 212.169 314.059 211.899 310.474C211.629 306.889 200.257 304.823 186.5 305.86C172.743 306.896 161.81 310.643 162.08 314.228C162.351 317.814 173.722 319.879 187.479 318.843Z" fill="white" stroke="#020140" stroke-width="0.5" stroke-linecap="round" stroke-linejoin="round"/>
<path d="M187.223 315.453C197.395 314.686 205.536 312.676 205.407 310.963C205.278 309.25 196.928 308.484 186.756 309.25C176.584 310.017 168.443 312.027 168.572 313.739C168.701 315.452 177.052 316.219 187.223 315.453Z" fill="#DEE9F5"/>
<path d="M161.57 307.529L162.08 314.359C162.35 317.949 173.72 320.009 187.48 318.979C201.24 317.939 212.17 314.199 211.9 310.609L211.39 303.779L161.57 307.529Z" fill="white"/>
<path d="M174.88 319.039L173.94 306.609L161.57 307.539L162.08 314.369C162.26 316.759 167.39 318.479 174.88 319.049V319.039Z" fill="#DEE9F5"/>
<path d="M161.57 307.529L162.08 314.359C162.35 317.949 173.72 320.009 187.48 318.979C201.24 317.939 212.17 314.199 211.9 310.609L211.39 303.779L161.57 307.529Z" stroke="#020140" stroke-width="0.5" stroke-linecap="round" stroke-linejoin="round"/>
<path d="M186.966 311.861C200.723 310.824 211.656 307.078 211.386 303.492C211.116 299.907 199.744 297.841 185.987 298.878C172.23 299.915 161.297 303.662 161.567 307.247C161.837 310.832 173.209 312.898 186.966 311.861Z" fill="white" stroke="#020140" stroke-width="0.5" stroke-linecap="round" stroke-linejoin="round"/>
<path d="M186.71 308.471C196.882 307.704 205.023 305.695 204.894 303.982C204.765 302.269 196.415 301.502 186.243 302.269C176.071 303.035 167.93 305.045 168.059 306.758C168.188 308.471 176.538 309.238 186.71 308.471Z" fill="#DEE9F5"/>
<path d="M161.04 300.56L161.55 307.39C161.82 310.98 173.19 313.04 186.95 312.01C200.71 310.97 211.64 307.23 211.37 303.64L210.86 296.81L161.04 300.56Z" fill="white"/>
<path d="M174.35 312.06L173.41 299.63L161.04 300.56L161.55 307.39C161.73 309.78 166.86 311.5 174.35 312.07V312.06Z" fill="#DEE9F5"/>
<path d="M161.04 300.56L161.55 307.39C161.82 310.98 173.19 313.04 186.95 312.01C200.71 310.97 211.64 307.23 211.37 303.64L210.86 296.81L161.04 300.56Z" stroke="#020140" stroke-width="0.5" stroke-linecap="round" stroke-linejoin="round"/>
<path d="M186.433 304.891C200.19 303.854 211.124 300.107 210.853 296.522C210.583 292.937 199.212 290.871 185.455 291.908C171.698 292.945 160.764 296.692 161.035 300.277C161.305 303.862 172.676 305.928 186.433 304.891Z" fill="white" stroke="#020140" stroke-width="0.5" stroke-linecap="round" stroke-linejoin="round"/>
<path d="M186.178 301.501C196.35 300.734 204.491 298.724 204.362 297.012C204.233 295.299 195.882 294.532 185.71 295.298C175.538 296.065 167.397 298.075 167.526 299.788C167.655 301.5 176.006 302.267 186.178 301.501Z" fill="#DEE9F5"/>
<path d="M160.52 293.59L161.03 300.42C161.3 304.01 172.67 306.07 186.43 305.04C200.19 304 211.12 300.26 210.85 296.67L210.34 289.84L160.52 293.59Z" fill="white"/>
<path d="M173.83 305.09L172.89 292.66L160.52 293.59L161.03 300.42C161.21 302.81 166.34 304.53 173.83 305.1V305.09Z" fill="#DEE9F5"/>
<path d="M160.52 293.59L161.03 300.42C161.3 304.01 172.67 306.07 186.43 305.04C200.19 304 211.12 300.26 210.85 296.67L210.34 289.84L160.52 293.59Z" stroke="#020140" stroke-width="0.5" stroke-linecap="round" stroke-linejoin="round"/>
<path d="M185.91 297.91C199.667 296.873 210.601 293.126 210.33 289.541C210.06 285.956 198.689 283.89 184.932 284.927C171.175 285.964 160.242 289.711 160.512 293.296C160.782 296.881 172.153 298.947 185.91 297.91Z" fill="white" stroke="#020140" stroke-width="0.5" stroke-linecap="round" stroke-linejoin="round"/>
<path d="M185.655 294.52C195.827 293.753 203.968 291.743 203.839 290.031C203.71 288.318 195.359 287.551 185.187 288.317C175.015 289.084 166.874 291.094 167.003 292.807C167.132 294.52 175.483 295.287 185.655 294.52Z" fill="#DEE9F5"/>
<path d="M159.99 286.61L160.5 293.44C160.77 297.03 172.14 299.09 185.9 298.06C199.66 297.02 210.59 293.28 210.32 289.69L209.81 282.86L159.99 286.61Z" fill="white"/>
<path d="M173.3 298.11L172.36 285.68L159.99 286.61L160.5 293.44C160.68 295.83 165.81 297.55 173.3 298.12V298.11Z" fill="#DEE9F5"/>
<path d="M159.99 286.61L160.5 293.44C160.77 297.03 172.14 299.09 185.9 298.06C199.66 297.02 210.59 293.28 210.32 289.69L209.81 282.86L159.99 286.61Z" stroke="#020140" stroke-width="0.5" stroke-linecap="round" stroke-linejoin="round"/>
<path d="M185.378 290.939C199.135 289.903 210.068 286.156 209.798 282.57C209.528 278.985 198.157 276.919 184.4 277.956C170.643 278.993 159.709 282.74 159.979 286.325C160.25 289.91 171.621 291.976 185.378 290.939Z" fill="white" stroke="#020140" stroke-width="0.5" stroke-linecap="round" stroke-linejoin="round"/>
<path d="M185.123 287.549C195.294 286.783 203.436 284.773 203.307 283.06C203.177 281.347 194.827 280.58 184.655 281.347C174.483 282.113 166.342 284.123 166.471 285.836C166.6 287.549 174.951 288.316 185.123 287.549Z" fill="#DEE9F5"/>
<path d="M159.47 279.64L159.98 286.47C160.25 290.06 171.62 292.12 185.38 291.09C199.14 290.05 210.07 286.31 209.8 282.72L209.29 275.89L159.47 279.64Z" fill="white"/>
<path d="M172.78 291.14L171.84 278.71L159.47 279.64L159.98 286.47C160.16 288.86 165.29 290.58 172.78 291.15V291.14Z" fill="#DEE9F5"/>
<path d="M159.47 279.64L159.98 286.47C160.25 290.06 171.62 292.12 185.38 291.09C199.14 290.05 210.07 286.31 209.8 282.72L209.29 275.89L159.47 279.64Z" stroke="#020140" stroke-width="0.5" stroke-linecap="round" stroke-linejoin="round"/>
<path d="M184.866 283.968C198.623 282.931 209.556 279.184 209.286 275.599C209.016 272.014 197.644 269.948 183.887 270.985C170.13 272.022 159.197 275.769 159.467 279.354C159.737 282.939 171.109 285.005 184.866 283.968Z" fill="white" stroke="#020140" stroke-width="0.5" stroke-linecap="round" stroke-linejoin="round"/>
<path d="M184.61 280.578C194.782 279.811 202.923 277.801 202.794 276.089C202.665 274.376 194.314 273.609 184.143 274.376C173.971 275.142 165.829 277.152 165.959 278.865C166.088 280.578 174.438 281.345 184.61 280.578Z" fill="#DEE9F5"/>
<path d="M140.48 350.56V357.41C140.48 361.01 151.66 363.92 165.46 363.92C179.26 363.92 190.44 361.01 190.44 357.41V350.56H140.48Z" fill="white"/>
<path d="M152.89 363.03V350.56H140.48V357.41C140.48 359.81 145.47 361.91 152.89 363.03Z" fill="#DEE9F5"/>
<path d="M140.48 350.56V357.41C140.48 361.01 151.66 363.92 165.46 363.92C179.26 363.92 190.44 361.01 190.44 357.41V350.56H140.48Z" stroke="#020140" stroke-width="0.5" stroke-linecap="round" stroke-linejoin="round"/>
<path d="M165.46 356.79C179.256 356.79 190.44 353.875 190.44 350.28C190.44 346.685 179.256 343.77 165.46 343.77C151.664 343.77 140.48 346.685 140.48 350.28C140.48 353.875 151.664 356.79 165.46 356.79Z" fill="white" stroke="#020140" stroke-width="0.5" stroke-linecap="round" stroke-linejoin="round"/>
<path d="M165.46 353.39C175.661 353.39 183.93 351.998 183.93 350.28C183.93 348.562 175.661 347.17 165.46 347.17C155.26 347.17 146.99 348.562 146.99 350.28C146.99 351.998 155.26 353.39 165.46 353.39Z" fill="#DEE9F5"/>
<path d="M140.48 343.57V350.42C140.48 354.02 151.66 356.93 165.46 356.93C179.26 356.93 190.44 354.02 190.44 350.42V343.57H140.48Z" fill="white"/>
<path d="M152.89 356.03V343.56H140.48V350.41C140.48 352.81 145.47 354.91 152.89 356.03Z" fill="#DEE9F5"/>
<path d="M140.48 343.57V350.42C140.48 354.02 151.66 356.93 165.46 356.93C179.26 356.93 190.44 354.02 190.44 350.42V343.57H140.48Z" stroke="#020140" stroke-width="0.5" stroke-linecap="round" stroke-linejoin="round"/>
<path d="M165.46 349.8C179.256 349.8 190.44 346.886 190.44 343.29C190.44 339.695 179.256 336.78 165.46 336.78C151.664 336.78 140.48 339.695 140.48 343.29C140.48 346.886 151.664 349.8 165.46 349.8Z" fill="white" stroke="#020140" stroke-width="0.5" stroke-linecap="round" stroke-linejoin="round"/>
<path d="M165.46 346.4C175.661 346.4 183.93 345.008 183.93 343.29C183.93 341.573 175.661 340.18 165.46 340.18C155.26 340.18 146.99 341.573 146.99 343.29C146.99 345.008 155.26 346.4 165.46 346.4Z" fill="#DEE9F5"/>
<path d="M140.48 336.57V343.42C140.48 347.02 151.66 349.93 165.46 349.93C179.26 349.93 190.44 347.02 190.44 343.42V336.57H140.48Z" fill="white"/>
<path d="M152.89 349.04V336.57H140.48V343.42C140.48 345.82 145.47 347.92 152.89 349.04Z" fill="#DEE9F5"/>
<path d="M140.48 336.57V343.42C140.48 347.02 151.66 349.93 165.46 349.93C179.26 349.93 190.44 347.02 190.44 343.42V336.57H140.48Z" stroke="#020140" stroke-width="0.5" stroke-linecap="round" stroke-linejoin="round"/>
<path d="M165.46 342.81C179.256 342.81 190.44 339.895 190.44 336.3C190.44 332.705 179.256 329.79 165.46 329.79C151.664 329.79 140.48 332.705 140.48 336.3C140.48 339.895 151.664 342.81 165.46 342.81Z" fill="white" stroke="#020140" stroke-width="0.5" stroke-linecap="round" stroke-linejoin="round"/>
<path d="M165.46 339.41C175.661 339.41 183.93 338.018 183.93 336.3C183.93 334.582 175.661 333.19 165.46 333.19C155.26 333.19 146.99 334.582 146.99 336.3C146.99 338.018 155.26 339.41 165.46 339.41Z" fill="#DEE9F5"/>
<path d="M140.48 329.58V336.43C140.48 340.03 151.66 342.94 165.46 342.94C179.26 342.94 190.44 340.03 190.44 336.43V329.58H140.48Z" fill="white"/>
<path d="M152.89 342.05V329.58H140.48V336.43C140.48 338.83 145.47 340.93 152.89 342.05Z" fill="#DEE9F5"/>
<path d="M140.48 329.58V336.43C140.48 340.03 151.66 342.94 165.46 342.94C179.26 342.94 190.44 340.03 190.44 336.43V329.58H140.48Z" stroke="#020140" stroke-width="0.5" stroke-linecap="round" stroke-linejoin="round"/>
<path d="M165.46 335.81C179.256 335.81 190.44 332.895 190.44 329.3C190.44 325.705 179.256 322.79 165.46 322.79C151.664 322.79 140.48 325.705 140.48 329.3C140.48 332.895 151.664 335.81 165.46 335.81Z" fill="white" stroke="#020140" stroke-width="0.5" stroke-linecap="round" stroke-linejoin="round"/>
<path d="M165.46 332.41C175.661 332.41 183.93 331.018 183.93 329.3C183.93 327.582 175.661 326.19 165.46 326.19C155.26 326.19 146.99 327.582 146.99 329.3C146.99 331.018 155.26 332.41 165.46 332.41Z" fill="#DEE9F5"/>
<path d="M140.48 322.58V329.43C140.48 333.03 151.66 335.94 165.46 335.94C179.26 335.94 190.44 333.03 190.44 329.43V322.58H140.48Z" fill="white"/>
<path d="M152.89 335.05V322.58H140.48V329.43C140.48 331.83 145.47 333.93 152.89 335.05Z" fill="#DEE9F5"/>
<path d="M140.48 322.58V329.43C140.48 333.03 151.66 335.94 165.46 335.94C179.26 335.94 190.44 333.03 190.44 329.43V322.58H140.48Z" stroke="#020140" stroke-width="0.5" stroke-linecap="round" stroke-linejoin="round"/>
<path d="M165.46 328.82C179.256 328.82 190.44 325.905 190.44 322.31C190.44 318.714 179.256 315.8 165.46 315.8C151.664 315.8 140.48 318.714 140.48 322.31C140.48 325.905 151.664 328.82 165.46 328.82Z" fill="white" stroke="#020140" stroke-width="0.5" stroke-linecap="round" stroke-linejoin="round"/>
<path d="M165.46 325.42C175.661 325.42 183.93 324.027 183.93 322.31C183.93 320.592 175.661 319.2 165.46 319.2C155.26 319.2 146.99 320.592 146.99 322.31C146.99 324.027 155.26 325.42 165.46 325.42Z" fill="#DEE9F5"/>
<path d="M140.48 315.59V322.44C140.48 326.04 151.66 328.95 165.46 328.95C179.26 328.95 190.44 326.04 190.44 322.44V315.59H140.48Z" fill="white"/>
<path d="M152.89 328.06V315.59H140.48V322.44C140.48 324.84 145.47 326.94 152.89 328.06Z" fill="#DEE9F5"/>
<path d="M140.48 315.59V322.44C140.48 326.04 151.66 328.95 165.46 328.95C179.26 328.95 190.44 326.04 190.44 322.44V315.59H140.48Z" stroke="#020140" stroke-width="0.5" stroke-linecap="round" stroke-linejoin="round"/>
<path d="M165.46 321.83C179.256 321.83 190.44 318.915 190.44 315.32C190.44 311.725 179.256 308.81 165.46 308.81C151.664 308.81 140.48 311.725 140.48 315.32C140.48 318.915 151.664 321.83 165.46 321.83Z" fill="white" stroke="#020140" stroke-width="0.5" stroke-linecap="round" stroke-linejoin="round"/>
<path d="M165.46 318.43C175.661 318.43 183.93 317.038 183.93 315.32C183.93 313.602 175.661 312.21 165.46 312.21C155.26 312.21 146.99 313.602 146.99 315.32C146.99 317.038 155.26 318.43 165.46 318.43Z" fill="#DEE9F5"/>
<path d="M149.1 334.37C145.21 332.4 142.54 329.37 140.71 325.57C138.88 329.36 136.2 332.41 132.31 334.38C136.2 336.35 138.88 339.38 140.71 343.18C142.54 339.39 145.21 336.34 149.1 334.37Z" fill="white" stroke="#020140" stroke-width="0.5" stroke-linecap="round" stroke-linejoin="round"/>
<path d="M132.31 312.84C130.05 311.69 128.5 309.93 127.44 307.73C126.38 309.93 124.82 311.7 122.56 312.85C124.82 314 126.38 315.76 127.44 317.96C128.5 315.76 130.06 313.99 132.31 312.84Z" fill="white" stroke="#020140" stroke-width="0.5" stroke-linecap="round" stroke-linejoin="round"/>
</g>
<defs>
<clipPath id="clip0_21_6266">
<rect width="302.26" height="364.16" fill="white" transform="translate(-20)"/>
</clipPath>
</defs>
</svg>
