<svg width="137" height="137" viewBox="0 0 137 137" fill="none" xmlns="http://www.w3.org/2000/svg">
<path d="M116 137H12V132H17.5L23 134.5H28.5L36.5 132L38 128H90.3768L91.8841 132H99.5V134H110L111 132H116V137Z" fill="#E3EEF8"/>
<path d="M101.5 74H17.5V70.5L21 63L27 56L32 54.5L35 53L40 49H45L56.5 50.5L58 52L61 53H63L65.5 52L94 69L101.5 71.5L102.5 73L101.5 74Z" fill="#B8D3EE"/>
<path d="M12.5 76.5L15 74.5H97.5L116.5 76.5L115.5 86L111 87.5V134H99V124L93.5 121.5H33.5L29 124V134H20H17V90L18.5 87.5H15L12.5 86V82.5V76.5Z" fill="white"/>
<path d="M36.3615 49C36.266 48.0729 35.8298 46.8578 36.3615 46.0126C36.9204 45.0992 37.4658 44.1721 38.0384 43.2723C39.4835 40.9547 39.4835 38.4189 39.1426 35.8286C39.0472 35.1333 38.9791 34.4516 39.02 33.7563C39.1426 31.316 38.5701 28.9029 38.7337 26.4489C38.8018 25.3583 38.1883 24.8948 37.0977 24.922C33.4031 25.0038 29.7221 25.3447 26.0684 25.89C24.2143 26.1763 22.3465 26.3944 20.547 26.9806C19.6744 27.2669 19.3472 27.5669 19.3881 28.6575C19.5108 32.2158 19.988 35.7332 20.3152 39.2642C20.547 41.7863 22.0194 43.6677 23.9962 45.2082C25.005 45.9853 26.0275 46.7488 26.9 47.6758C27.8135 48.6438 28.2225 49.789 28.3043 51.125C28.3997 52.5565 28.4542 54.0153 28.9723 55.4059" stroke="#020140" stroke-width="0.5" stroke-linecap="round" stroke-linejoin="round"/>
<path d="M21.5 90H111.5V87H23L17.5 88V130.5V134H21.5V90Z" fill="#DEE9F5"/>
<path d="M98.2818 123.775C97.641 123.679 97.1366 123.352 96.6185 122.97C95.4188 122.057 93.9873 121.716 92.5013 121.716C73.5648 121.716 54.6419 121.716 35.7054 121.716C34.3148 121.716 33.006 122.152 31.8472 122.943C31.6563 123.08 31.5745 123.311 31.3019 123.366C29.3523 123.775 29.475 125.411 29.3932 126.801C29.2842 128.587 29.3387 130.387 29.3796 132.173C29.4069 133.618 28.7388 134.122 27.4437 134.109C24.6898 134.082 21.9359 134.109 19.1683 134.095C17.6551 134.095 17.2461 133.686 17.2461 132.173C17.2461 117.79 17.2461 103.407 17.2324 89.0238C17.2324 88.6012 17.4097 88.2058 17.3824 87.7832" stroke="#020140" stroke-width="0.5" stroke-linecap="round" stroke-linejoin="round"/>
<path d="M110.963 87.7979V131.915C110.963 134.055 110.894 134.123 108.754 134.123C106.096 134.123 103.424 134.096 100.765 134.123C99.538 134.137 99.0745 133.687 99.1018 132.46C99.1427 130.538 99.2245 128.588 99.0745 126.68C98.9654 125.112 98.8973 123.585 98.9927 121.99C99.3063 116.496 99.2654 110.961 99.0336 105.453C98.9518 103.367 99.2926 101.322 99.1427 99.2497C98.9927 97.1911 99.1154 95.1189 99.1154 93.0466V91.2607" stroke="#020140" stroke-width="0.5" stroke-linecap="round" stroke-linejoin="round"/>
<path d="M57.7505 87.2532C45.1534 87.2532 32.57 87.2532 19.9729 87.2532C19.0595 87.2532 18.2006 87.5803 17.3553 87.6212C14.7105 87.7576 12.5019 85.9716 12.311 83.395C12.1611 81.4863 11.9975 79.5231 12.5292 77.6008C13.0336 75.774 14.0834 74.9151 15.842 74.5334C17.1236 74.2471 18.3369 74.547 19.5775 74.5606C21.9633 74.5879 24.3628 74.6697 26.7486 74.547C30.6613 74.3289 34.5604 74.7242 38.4731 74.5879M54.6012 74.6016C58.6912 74.5198 62.7811 74.7243 66.8711 74.5061C69.6386 74.3698 72.3789 74.6833 75.1464 74.5879C77.9412 74.4788 80.7497 74.5606 83.5581 74.5606H91.8335C94.5874 74.5606 97.3413 74.5606 100.109 74.5606C100.9 74.5606 101.636 74.4789 102.317 74.0153C102.89 73.6063 103.517 73.5791 104.24 73.7018C108.18 74.3698 112.065 75.2014 115.814 76.6193C115.992 76.6874 116.141 76.742 116.373 76.6329C118.214 75.8149 119.413 73.8926 119.263 71.9294C119.168 70.6616 118.159 69.6527 116.932 69.2846C114.41 68.5484 111.942 67.6214 109.488 66.6807C108.793 66.408 108.343 65.8218 107.839 65.3037" stroke="#020140" stroke-width="0.5" stroke-linecap="round" stroke-linejoin="round"/>
<path d="M116.061 76.9053C116.361 79.1957 116.265 81.5133 116.156 83.79C116.061 85.6578 114.588 86.8166 112.639 87.2938C111.289 87.621 110.049 87.2392 108.767 87.2392C96.0882 87.2392 83.3957 87.2392 70.7168 87.2392" stroke="#020140" stroke-width="0.5" stroke-linecap="round" stroke-linejoin="round"/>
<path d="M119.784 34.5876C118.939 36.0327 119.907 37.3688 120.125 38.7185C120.384 40.2863 120.507 41.8405 120.466 43.4219C120.357 47.7709 119.389 51.9427 117.412 55.8145C115.599 59.3591 113.185 62.4266 109.3 63.9671C107.228 66.2166 105.087 64.9624 102.961 64.1035C100.152 62.9719 97.3164 61.854 94.7125 60.3407C92.1631 58.8547 89.3547 57.9004 86.8189 56.4007C82.1972 53.6604 77.3711 51.261 72.8858 48.2753C72.2314 47.8391 71.7406 47.3074 71.2361 46.7484C70.8135 46.2849 70.5272 45.8486 70.8271 45.2215C71.1816 44.5126 71.0316 43.7218 70.9362 43.0129C69.7092 32.7199 73.9219 25.0989 82.4154 19.5911C83.6151 18.814 85.1147 18.5004 86.1372 17.3825C86.3145 17.1916 86.6553 17.2053 86.9552 17.2325C90.4317 17.5597 93.9354 17.7779 97.1528 19.3048C98.4889 19.9455 99.6068 20.968 101.011 21.527C102.088 21.9496 101.788 22.8631 101.27 23.422C99.1706 25.6988 97.8481 28.4663 96.1985 31.0293C95.8304 31.6019 95.5714 32.2427 95.6396 32.9516" stroke="#020140" stroke-width="0.5" stroke-linecap="round" stroke-linejoin="round"/>
<path d="M56.3878 104.049C47.5671 104.049 38.7465 104.049 29.9258 104.049" stroke="#020140" stroke-width="0.5" stroke-linecap="round" stroke-linejoin="round"/>
<path d="M34 53.6183C34.6408 52.364 37.547 50.1917 41.5 48.9708C42.3589 48.7799 45.6163 48.8748 46.4343 48.9702C48.5065 49.202 50.5788 49.4337 52.6374 49.7882C53.878 49.9927 57.35 50.1506 57.5 51.5003C57.6227 52.5773 59.4911 52.5139 60.5 52.5003C62.4359 52.4867 60.4765 52.8557 62.426 53.0738C62.6851 53.1011 62.9168 53.0329 63.1077 52.9238C64.8664 51.8605 66.3251 52.7466 67.7975 53.6191C69.9107 54.8734 72.0511 56.1685 73.9324 57.6955C75.3776 58.8815 77.0817 59.4541 78.5814 60.463C80.081 61.4719 81.6761 62.4262 83.3666 63.1487C83.5575 63.2305 83.7893 63.3396 83.8983 63.435C86.2296 65.6027 89.4061 66.1208 92.0646 67.6613C94.6822 69.1746 97.5179 70.2653 100.326 71.3832C101.485 71.8467 102.385 72.4738 103.067 73.4827" stroke="#B8D3EE" stroke-width="0.5" stroke-linecap="round" stroke-linejoin="round"/>
<path d="M29.2168 91.792C29.4213 95.1049 29.2441 98.4177 29.3804 101.717C29.5167 104.934 29.2577 108.152 29.3395 111.369C29.4213 114.587 29.3804 117.804 29.3395 121.022C29.3395 121.962 29.4486 122.821 29.9121 123.639" stroke="#020140" stroke-width="0.5" stroke-linecap="round" stroke-linejoin="round"/>
<path d="M86.2852 17.2195C85.6853 15.8153 84.3356 15.6108 83.1087 15.4608C78.0916 14.8064 73.7017 16.1152 69.8436 19.5235C67.6895 21.4322 66.7079 23.9134 65.4673 26.3265C64.2403 28.7123 64.1312 31.289 64.0631 33.9065C63.9949 36.4832 64.7175 38.8963 65.2628 41.3639C65.9308 44.3632 67.8531 45.4948 70.5661 45.9038" stroke="#020140" stroke-width="0.5" stroke-linecap="round" stroke-linejoin="round"/>
<path d="M107.512 25.4941C112.188 27.4437 115.937 30.6884 119.495 34.1921C119.591 34.2876 119.632 34.4239 119.782 34.4648C124.812 35.869 126.475 40.0408 127.907 44.3898C128.684 46.7756 128.139 49.2704 128.425 51.6971C128.52 52.5015 127.689 53.0741 127.457 53.8921C126.857 56.0052 126.012 58.0638 125.167 60.0543C124.485 61.663 123.217 63.1627 122.127 64.6623C121.268 65.8211 120.245 66.8164 119.223 67.8252C118.718 68.316 118.282 68.8477 117.982 69.4885" stroke="#020140" stroke-width="0.5" stroke-linecap="round" stroke-linejoin="round"/>
<path d="M68.0843 20.5317C66.3529 19.3047 64.5806 18.9093 62.6992 20.259C60.9814 21.486 60.1771 23.6809 60.627 25.7804C61.0496 27.7573 62.6038 28.289 64.2261 28.807" stroke="#020140" stroke-width="0.5" stroke-linecap="round" stroke-linejoin="round"/>
<path d="M96.8933 45.8896C97.0706 46.4213 96.9479 46.9121 96.757 47.4029C95.2846 51.1657 93.9758 54.9966 92.3398 58.7049" stroke="#020140" stroke-width="0.5" stroke-linecap="round" stroke-linejoin="round"/>
<path d="M90.416 43.5449C89.0118 44.6901 88.6573 46.4352 87.9347 47.9621C86.8713 50.2388 86.2442 52.7064 84.8945 54.8468" stroke="#020140" stroke-width="0.5" stroke-linecap="round" stroke-linejoin="round"/>
<path d="M125.439 60.0947C127.662 61.6216 130.484 59.8493 131.234 57.7498C132.188 55.1186 131.356 52.4465 128.602 51.8193" stroke="#020140" stroke-width="0.5" stroke-linecap="round" stroke-linejoin="round"/>
<path d="M34 53.5C31.6551 53.8272 31.3973 55.0098 29.1069 55.5415C28.139 55.7733 22.5 58.5002 18.5 69.0002" stroke="#B8D3EE" stroke-width="0.5" stroke-linecap="round" stroke-linejoin="round"/>
<path d="M101.854 22.4531C103.817 22.5622 105.562 23.1212 106.994 24.6208C107.403 25.0571 107.457 25.4115 107.28 25.7524C105.644 29.0107 104.131 32.3372 102.154 35.4183C101.922 35.7864 101.554 35.9227 101.309 36.2363" stroke="#020140" stroke-width="0.5" stroke-linecap="round" stroke-linejoin="round"/>
<path d="M65.603 43.2725C64.5941 43.8723 63.3808 44.0632 62.5492 45.0448C61.3631 46.4354 61.1586 48.6985 62.6991 49.9118C63.4762 50.5117 64.3215 51.1388 64.5124 52.2295" stroke="#020140" stroke-width="0.5" stroke-linecap="round" stroke-linejoin="round"/>
<path d="M101.31 36.3732C101.173 37.4775 101.378 38.5681 101.201 39.6861C100.928 41.472 100.137 42.9035 98.8284 44.1032C98.174 44.7031 97.5469 45.5892 96.7425 45.6847C95.4064 45.8346 93.9204 45.6438 92.7889 44.8803C91.93 44.2941 90.6621 44.0487 90.4031 42.7263C89.9395 40.3405 90.0895 38.0501 91.5074 35.9778C92.4889 34.5464 94.0977 33.742 95.5564 33.2239C96.4835 32.8967 98.0649 33.6329 99.0738 34.4782C99.7691 35.0644 100.519 35.5961 101.16 36.2505" stroke="#020140" stroke-width="0.5" stroke-linecap="round" stroke-linejoin="round"/>
<path d="M98.5543 104.063C96.2094 104.063 93.8644 104.008 91.5195 104.199" stroke="#020140" stroke-width="0.5" stroke-linecap="round" stroke-linejoin="round"/>
<path d="M18.5965 68.4932C17.983 70.2791 17.6694 72.1332 17.4922 74.001" stroke="#020140" stroke-width="0.5" stroke-linecap="round" stroke-linejoin="round"/>
<path d="M29.2159 31.5469C27.6345 32.024 27.1846 33.1965 27.13 34.7234C27.0891 35.9368 27.3073 37.1229 27.4436 38.3089C27.5936 39.6314 28.8205 40.5039 30.3202 40.3676C32.0516 40.204 32.6651 39.5632 32.9241 37.7636C33.1423 36.3321 32.8423 34.9006 32.6378 33.4964C32.447 32.174 31.2745 31.5605 29.3522 31.5605" stroke="#020140" stroke-width="0.5" stroke-linecap="round" stroke-linejoin="round"/>
<rect x="60" y="86" width="9" height="16" rx="2" fill="#B8D3EE"/>
<path d="M60 84.25H69C69.9665 84.25 70.75 85.0335 70.75 86V102C70.75 102.966 69.9665 103.75 69 103.75H60C59.0335 103.75 58.25 102.966 58.25 102V86C58.25 85.0335 59.0335 84.25 60 84.25Z" stroke="#020140" stroke-width="0.5"/>
<g clip-path="url(#clip0_3_2780)">
<path d="M60.1876 60.8927C61.6808 59.3995 60.8221 56.1198 58.2696 53.5673C55.7171 51.0148 52.4374 50.1561 50.9442 51.6493C49.451 53.1425 50.3097 56.4222 52.8622 58.9747C55.4147 61.5272 58.6944 62.386 60.1876 60.8927Z" stroke="#020140" stroke-width="0.5" stroke-linecap="round" stroke-linejoin="round"/>
<path d="M61.9471 58.9469C63.4403 57.4537 62.5816 54.174 60.0291 51.6215C57.4766 49.069 54.1969 48.2103 52.7037 49.7035C51.2105 51.1967 52.0692 54.4764 54.6217 57.0289C57.1742 59.5814 60.4539 60.4402 61.9471 58.9469Z" fill="white" stroke="#020140" stroke-width="0.5" stroke-linecap="round" stroke-linejoin="round"/>
</g>
<g clip-path="url(#clip1_3_2780)">
<path d="M77.6818 66.1967C77.1807 64.1453 73.9317 63.1767 70.425 64.0334C66.9184 64.89 64.4819 67.2474 64.983 69.2988C65.4841 71.3502 68.7331 72.3188 72.2398 71.4621C75.7464 70.6055 78.1829 68.2481 77.6818 66.1967Z" stroke="#020140" stroke-width="0.5" stroke-linecap="round" stroke-linejoin="round"/>
<path d="M76.932 63.6826C76.4309 61.6312 73.182 60.6626 69.6753 61.5192C66.1686 62.3758 63.7321 64.7332 64.2333 66.7846C64.7344 68.836 67.9833 69.8046 71.49 68.948C74.9967 68.0914 77.4332 65.734 76.932 63.6826Z" fill="white" stroke="#020140" stroke-width="0.5" stroke-linecap="round" stroke-linejoin="round"/>
</g>
<g clip-path="url(#clip2_3_2780)">
<path d="M31.662 67.8927C30.1688 66.3995 31.0275 63.1198 33.58 60.5673C36.1325 58.0148 39.4122 57.1561 40.9054 58.6493C42.3986 60.1425 41.5399 63.4222 38.9874 65.9747C36.4349 68.5272 33.1552 69.386 31.662 67.8927Z" stroke="#020140" stroke-width="0.5" stroke-linecap="round" stroke-linejoin="round"/>
<path d="M29.9025 65.9469C28.4093 64.4537 29.268 61.174 31.8205 58.6215C34.373 56.069 37.6527 55.2103 39.1459 56.7035C40.6391 58.1967 39.7804 61.4764 37.2279 64.0289C34.6754 66.5814 31.3957 67.4402 29.9025 65.9469Z" fill="white" stroke="#020140" stroke-width="0.5" stroke-linecap="round" stroke-linejoin="round"/>
</g>
<path d="M87.5 29C87.5 23.2016 82.7984 18.5 77 18.5C82.7984 18.5 87.5 13.7984 87.5 8C87.5 13.7984 92.2016 18.5 98 18.5C92.2016 18.5 87.5 23.2016 87.5 29Z" fill="white" stroke="black" stroke-width="0.5" stroke-linecap="round" stroke-linejoin="round"/>
<path d="M14.5 109C14.5 104.858 11.1417 101.5 7 101.5C11.1417 101.5 14.5 98.1417 14.5 94C14.5 98.1417 17.8583 101.5 22 101.5C17.8583 101.5 14.5 104.858 14.5 109Z" fill="white" stroke="black" stroke-width="0.5" stroke-linecap="round" stroke-linejoin="round"/>
<defs>
<clipPath id="clip0_3_2780">
<rect width="15.85" height="15.85" fill="white" transform="translate(49 47)"/>
</clipPath>
<clipPath id="clip1_3_2780">
<rect width="15.85" height="15.85" fill="white" transform="translate(60 68.5469) rotate(-58.7275)"/>
</clipPath>
<clipPath id="clip2_3_2780">
<rect width="15.85" height="15.85" fill="white" transform="matrix(-1 0 0 1 42.8496 54)"/>
</clipPath>
</defs>
</svg>
