<svg width="300" height="260" viewBox="0 0 300 260" fill="none" xmlns="http://www.w3.org/2000/svg">
<g clip-path="url(#clip0_1114_29119)">
<path fill-rule="evenodd" clip-rule="evenodd" d="M242.292 115.534C243.653 114.59 245.522 114.931 246.466 116.292C247.41 117.654 247.069 119.523 245.708 120.467C244.346 121.409 242.477 121.07 241.533 119.708C240.591 118.347 240.93 116.478 242.292 115.534Z" stroke="#020140" stroke-width="0.8" stroke-linecap="round"/>
<path fill-rule="evenodd" clip-rule="evenodd" d="M48.2916 11.5341C49.6532 10.5902 51.522 10.9307 52.4659 12.2923C53.4098 13.6539 53.0693 15.5228 51.7077 16.4666C50.3461 17.4088 48.4772 17.0701 47.5334 15.7084C46.5912 14.3468 46.9299 12.478 48.2916 11.5341Z" stroke="#020140" stroke-width="0.8" stroke-linecap="round"/>
<path fill-rule="evenodd" clip-rule="evenodd" d="M166.417 206.046L176.783 193.365L159.948 191L166.417 206.046Z" fill="#D4E5F5"/>
<path fill-rule="evenodd" clip-rule="evenodd" d="M35.3659 87.0463L25.0002 74.3655L41.8348 71.9995L35.3659 87.0463Z" fill="#D4E5F5"/>
<circle cx="17" cy="129" r="7" fill="#A2EB9A"/>
<rect x="126.691" y="122.393" width="12" height="12" transform="rotate(-167 126.691 122.393)" fill="#3C65E3"/>
<rect width="12" height="12" transform="matrix(0.97437 -0.224951 -0.224951 -0.97437 278.008 0.392578)" fill="#3C65E3"/>
<rect width="12" height="12" transform="matrix(0.97437 -0.224951 -0.224951 -0.97437 249.701 191.393)" fill="#3C65E3"/>
<circle cx="208" cy="48" r="7" fill="#A2EB9A"/>
</g>
<defs>
<clipPath id="clip0_1114_29119">
<rect width="300" height="260" fill="white"/>
</clipPath>
</defs>
</svg>
