<svg width="123" height="44" viewBox="0 0 123 44" fill="none" xmlns="http://www.w3.org/2000/svg">
<g clip-path="url(#clip0_21_680)">
<path d="M78.0192 19.543C75.5462 19.543 73.0396 20.5308 70.9161 22.4662L69.0815 19.9596H61.8574L67.2671 27.9027C66.6959 29.3072 66.3935 30.4899 66.1247 31.8138L64.4245 42.754H70.3583L72.1324 32.5732C72.8514 28.353 75.0556 25.544 78.0192 25.544C81.1373 25.5037 83.449 27.9027 83.449 31.4711C83.449 35.0394 80.8281 37.5124 77.448 37.5124C76.8364 37.5124 75.3782 37.3242 74.6726 37.1092L74.6322 42.8347C75.5462 43.043 76.6079 43.1774 77.4076 43.1774C84.625 43.1774 89.45 38.4667 89.45 31.3971C89.45 24.3276 84.8535 19.543 78.0124 19.543" fill="#040043"/>
<path d="M20.933 19.9601H5.96741V14.6445H0V25.9275H14.2868L7.31814 42.7612H13.9508L21.2018 25.2824C21.2757 25.0942 21.316 24.8993 21.316 24.8254V19.9601H20.9397H20.933Z" fill="#040043"/>
<path d="M23.668 19.957V25.9244H37.1417L35.3205 27.7859C35.2802 27.8262 35.2466 27.9405 35.2466 28.0144V42.7582H41.3283V25.9244H44.9369V19.957H23.6747H23.668Z" fill="#040043"/>
<path d="M62.5504 42.7515L57.7859 19.957H47.9679V25.9244H52.719L54.5065 35.0436C54.3519 36.0717 53.4783 36.7505 52.3023 36.7505H45.9922V42.7515H51.4623C53.0953 42.7515 53.5522 42.4827 55.4137 39.0689L56.9257 42.7515H62.5437H62.5504Z" fill="#040043"/>
<path d="M102.865 35.9453L97.9727 42.7527H122.931L118.045 35.9453H102.865Z" fill="#040043"/>
<path d="M103.375 27.957V34.7712H109.215V31.3977C109.215 30.719 109.766 30.1679 110.445 30.1679C111.123 30.1679 111.674 30.719 111.674 31.3977V34.7712H117.527V27.957H103.375Z" fill="#040043"/>
<path d="M117.925 19.9648V21.2753H116.285V19.9648H113.489V21.2753H111.85V19.9648H109.054V21.2753H107.414V19.9648H104.626V21.2753H102.979V19.9648H99.7871L103.349 26.7723H117.562L121.123 19.9648H117.925Z" fill="#040043"/>
<path d="M117.507 11.9766H103.361L104.833 14.7788V18.784H116.042V14.7788L117.507 11.9766Z" fill="#040043"/>
<path d="M115.283 3.98438H105.586V10.7985H115.283V3.98438Z" fill="#040043"/>
<path d="M115.691 0V1.31041H114.045V0H111.256V1.31041H109.616V0H106.821V1.31041H105.181V0H102.379L103.844 2.80226H117.029L118.494 0H115.691Z" fill="#040043"/>
</g>
<defs>
<clipPath id="clip0_21_680">
<rect width="122.93" height="43.1764" fill="white"/>
</clipPath>
</defs>
</svg>
