<svg width="83" height="73" viewBox="0 0 83 73" fill="none" xmlns="http://www.w3.org/2000/svg">
<line y1="59.6358" x2="9.19685" y2="59.6358" stroke="#020140" stroke-width="0.287402"/>
<g clip-path="url(#clip0_1195_31806)">
<path d="M69.5515 13.7953L67.5396 10.9213L66.9648 9.19687V5.46065L68.4019 2.87403L69.2641 1.72443H70.1263L72.1381 5.17324L72.4255 6.61025L72.1381 9.77167L70.9885 12.6457L69.5515 13.7953Z" fill="#BDD2EB"/>
<path d="M39.3736 43.3977V42.2481V40.8111L40.5232 39.6614L45.9839 38.5118H48.8579L54.8933 39.6614L56.9051 40.8111L56.6177 42.2481L56.9051 43.3977C56.8093 44.2599 56.6752 46.0992 56.9051 46.5591C57.135 47.0189 57.0009 47.3255 56.9051 47.4213L56.6177 48.2835C56.7135 48.6667 56.9051 49.8929 56.9051 51.7323C56.9051 52.1922 56.7135 52.6903 56.6177 52.8819V53.7441C56.7135 54.5105 56.9051 56.1583 56.9051 56.6181V58.0551C56.9051 58.515 56.7135 58.8216 56.6177 58.9174V59.7796L56.9051 62.6536L56.6177 64.378L56.9051 66.1024L56.6177 69.8386L54.3185 70.9882L48.8579 71.8504H45.4091L39.9484 70.4134L38.7988 68.9764L39.3736 67.252V65.2402V64.378V61.2166V59.7796V58.9174V55.1811V53.7441V48.8583L39.9484 48.2835L39.3736 47.4213V43.3977Z" fill="white"/>
<path d="M61.2164 42.8228V41.6732V40.2362L62.366 39.0866L67.8266 37.937H70.7007L76.7361 39.0866L78.7479 40.2362L78.4605 41.6732L78.7479 42.8228C78.6521 43.685 78.518 45.5244 78.7479 45.9843C78.9778 46.4441 78.8437 46.7507 78.7479 46.8465L78.4605 47.7087C78.5563 48.0919 78.7479 49.3181 78.7479 51.1575C78.7479 51.6173 78.5563 52.1155 78.4605 52.3071V53.1693C78.5563 53.9357 78.7479 55.5835 78.7479 56.0433V57.4803C78.7479 57.9402 78.5563 58.2467 78.4605 58.3425V59.2047L78.7479 62.0787L78.4605 63.8032L78.7479 65.5276L78.4605 69.2638L76.1613 70.4134L70.7007 71.2756H67.2518L61.7912 69.8386L60.6416 68.4016L61.2164 66.6772V64.6654V63.8032V60.6417V59.2047V58.3425V54.6063V53.1693V48.2835L61.7912 47.7087L61.2164 46.8465V42.8228Z" fill="white"/>
<path d="M22.417 25.5787H29.8894L34.7752 69.2638L29.8894 70.126L22.417 69.2638L18.3933 67.8268L13.7949 65.2402L11.4957 62.6535L9.77128 60.3543L8.33428 56.3307L8.04688 54.0315V51.1575L8.33428 48.5709L10.9209 41.9606L13.7949 37.0748L19.2555 29.6024L21.2673 28.1653L22.417 25.5787Z" fill="white"/>
<path d="M27.5903 47.9961C24.4289 38.2244 32.2846 28.9318 26.1533 26.1536H37.362L45.984 36.2126V38.2244C44.1638 38.895 40.351 40.3512 39.6612 40.811C38.9714 41.2709 38.9906 42.5355 39.0864 43.1103V45.6969V47.9961V50.2953V53.7441V54.8937L39.6612 58.0551V59.7795V63.8032V66.1024L39.0864 68.689L30.4643 70.4134L29.0273 69.5512C28.0693 67.8268 31.9115 61.3529 27.5903 47.9961Z" fill="#E1E9F3"/>
<path d="M46.2847 38.4177C45.6381 39.0085 44.7796 38.8413 44.0215 38.9862C42.8286 39.2204 41.6358 39.4322 40.5209 39.945C40.075 40.1457 39.6513 40.3798 39.3726 40.77C39.1051 41.1267 39.0828 41.5504 39.2388 42.0075C39.3838 42.4423 39.5956 42.5872 40.075 42.6987C41.1341 42.9439 42.1374 43.3899 43.2188 43.5794C45.0583 43.9027 46.8978 44.0699 48.7708 43.9919C50.3984 43.925 52.0038 43.7578 53.5869 43.3899C54.5011 43.1781 55.3372 42.7656 56.2848 42.6318C56.898 42.5426 56.9091 40.9595 56.2848 40.4801C55.6271 39.9673 54.8467 39.6552 54.0328 39.4433C51.9927 38.9082 49.9302 38.6964 47.8231 38.7187C47.5221 38.7187 47.2323 38.7187 46.9424 38.6406C46.5411 38.5292 46.2735 38.3285 46.1955 37.838C46.0505 36.9349 45.3816 36.2883 44.8911 35.5748C42.9067 32.7097 40.7104 30.0118 38.3247 27.4699C38.0237 27.1466 37.745 26.8344 37.6669 26.3774C37.6223 26.1209 37.4216 26.0095 37.1652 25.9314C36.7527 25.8088 36.3514 25.7196 35.9166 25.7196C31.8251 25.7196 27.7448 25.7196 23.6533 25.7196C22.8729 25.7196 22.2932 25.8868 21.8696 26.723C21.3456 27.7486 20.398 28.4956 19.6287 29.3651C16.2285 33.2448 13.1961 37.392 10.8995 42.0186C9.34987 45.129 8.23503 48.429 8.04551 51.9407C7.80024 56.3221 9.00427 60.2463 12.1147 63.4794C15.2474 66.7347 19.1605 68.4627 23.4972 69.3992C26.0614 69.9566 28.6367 70.1238 31.2343 70.0347C33.4305 69.9566 35.6045 69.6222 37.7338 69.0201C38.0906 68.9198 38.4696 68.9087 38.8263 68.7972" stroke="#020140" stroke-width="0.287402" stroke-linecap="round" stroke-linejoin="round"/>
<path d="M61.1781 64.8505C60.8882 65.2964 60.7991 65.787 60.8102 66.3109C60.8325 67.1582 60.8437 68.0167 60.8102 68.8639C60.7768 69.5774 61.0666 69.9788 61.6798 70.3467C62.8727 71.049 64.177 71.3389 65.4926 71.5507C67.1983 71.8294 68.9374 71.9521 70.6766 71.8517C72.7948 71.7291 74.9018 71.5396 76.8863 70.6811C78.0346 70.1795 78.5028 69.8673 78.4248 68.418C78.3913 67.7157 78.4025 67.0022 78.4248 66.2998C78.447 65.7758 78.3579 65.2853 78.0569 64.8394" stroke="#020140" stroke-width="0.287402" stroke-linecap="round" stroke-linejoin="round"/>
<path d="M56.43 64.85C56.731 65.2959 56.8314 65.7864 56.7979 66.3104C56.7422 67.2357 56.8425 68.1611 56.7422 69.0864C56.6753 69.6773 56.4189 70.034 55.9284 70.335C54.7355 71.0708 53.3865 71.3272 52.0487 71.5502C50.4099 71.8178 48.7488 71.9404 47.0876 71.8512C44.9025 71.7397 42.7286 71.5279 40.655 70.6918C39.8635 70.3796 39.2726 69.9002 38.9716 69.0864C38.9158 68.9415 38.8378 68.7854 38.9047 68.6516C39.2949 67.8935 39.0831 67.0908 39.1054 66.3104C39.1277 65.7864 39.1834 65.2959 39.4844 64.85" stroke="#020140" stroke-width="0.287402" stroke-linecap="round" stroke-linejoin="round"/>
<path d="M39.4959 59.2985C39.1949 59.7444 39.1168 60.2349 39.128 60.7589C39.1503 61.6842 39.128 62.6096 39.128 63.5349C39.128 64.4045 39.3844 64.6274 40.2205 64.9284C41.3911 65.3521 42.5728 65.7088 43.7992 65.9095C45.6944 66.2328 47.5896 66.2551 49.496 66.1993C51.7926 66.1325 53.9665 65.5193 56.1405 64.8615C56.7091 64.6943 56.7425 64.2038 56.7537 63.8916C56.8317 62.6318 56.8094 61.3609 56.7648 60.1012C56.7648 59.8447 56.631 59.5214 56.4192 59.2985" stroke="#020140" stroke-width="0.287402" stroke-linecap="round" stroke-linejoin="round"/>
<path d="M61.2461 59.1539C61.6363 59.1093 61.993 59.2319 62.3386 59.3769C63.643 59.9566 65.0254 60.1573 66.4301 60.3245C67.9352 60.514 69.4402 60.5363 70.9564 60.4806C72.9631 60.4025 74.9029 60.0904 76.7982 59.4326C77.2107 59.2877 77.6009 59.1205 78.0468 59.1428" stroke="#020140" stroke-width="0.287402" stroke-linecap="round" stroke-linejoin="round"/>
<path d="M39.4952 48.0612C39.1942 48.5071 39.105 48.9976 39.1273 49.5216C39.1496 50.3243 39.1496 51.127 39.1273 51.9297C39.1161 52.5094 39.1607 53.078 39.4729 53.6242C41.212 54.0033 42.9177 54.6945 44.7572 54.8617C46.4072 55.0178 48.0683 55.0735 49.7183 54.9955C51.9257 54.8952 54.0327 54.3043 56.1509 53.6911C56.7195 53.5239 56.753 52.9888 56.7753 52.6543C56.8644 51.3945 56.831 50.1236 56.7864 48.8638C56.7864 48.6074 56.6526 48.2841 56.4408 48.0612" stroke="#020140" stroke-width="0.287402" stroke-linecap="round" stroke-linejoin="round"/>
<path d="M61.2461 53.4674C61.9596 53.4897 62.5616 53.8576 63.2194 54.0583C64.769 54.5265 66.3632 54.7829 67.9686 54.8387C70.8338 54.939 73.6878 54.8721 76.4414 53.9022C76.9654 53.7127 77.4782 53.4674 78.0468 53.4674" stroke="#020140" stroke-width="0.287402" stroke-linecap="round" stroke-linejoin="round"/>
<path d="M39.4959 42.6533C39.1949 43.0993 39.1168 43.5898 39.128 44.1138C39.1503 44.961 39.128 45.8195 39.128 46.6668C39.128 47.6255 39.3398 47.8039 40.2874 48.1384C41.2239 48.484 42.1603 48.8296 43.1414 48.9856C45.0701 49.3089 47.0099 49.4873 48.9832 49.387C50.7446 49.2978 52.4615 49.0748 54.1672 48.64C54.8807 48.4617 55.505 48.0603 56.2854 48.0157C56.6756 47.9934 56.7537 47.4137 56.776 47.1016C56.8428 45.8864 56.8317 44.6712 56.776 43.456C56.776 43.1884 56.6422 42.8763 56.4303 42.6533" stroke="#020140" stroke-width="0.287402" stroke-linecap="round" stroke-linejoin="round"/>
<path d="M61.2461 42.2184C61.5248 42.2184 61.7812 42.2519 62.0488 42.3522C64.9474 43.4893 67.9575 43.7012 71.0233 43.5451C72.6844 43.4671 74.3121 43.2329 75.9174 42.7981C76.6198 42.6086 77.2664 42.185 78.0356 42.2184" stroke="#020140" stroke-width="0.287402" stroke-linecap="round" stroke-linejoin="round"/>
<path d="M61.1792 47.9164C60.8894 48.3623 60.8002 48.8529 60.8113 49.3768C60.8336 50.2799 60.711 51.194 60.8448 52.0747C60.9786 52.9666 60.9786 53.8139 60.8448 54.7169C60.6999 55.7203 60.711 56.7682 60.8448 57.7716C60.9674 58.6635 60.9786 59.5108 60.8448 60.4138C60.6999 61.4171 60.8002 62.4539 60.8113 63.4796C60.8113 64.4272 61.0343 64.639 61.9039 64.9512C63.264 65.4417 64.6464 65.8542 66.0734 66.0103C68.0801 66.2333 70.098 66.2444 72.127 66.0995C74.078 65.9546 75.884 65.3302 77.7458 64.8732C78.3701 64.7171 78.3924 64.1485 78.3701 63.7695C78.2921 62.2867 78.7157 60.7705 78.1137 59.3101C78.0914 59.2432 78.0914 59.154 78.1137 59.0983C78.6823 57.7382 78.4705 56.3112 78.359 54.9399C78.2029 53.0781 78.5597 51.2386 78.4147 49.388C78.3701 48.864 78.3367 48.3735 78.0357 47.9275" stroke="#020140" stroke-width="0.287402" stroke-linecap="round" stroke-linejoin="round"/>
<path d="M60.354 17.8189L58.917 14.6575V13.7953H60.354L64.3776 14.3701L67.539 16.3819L69.5508 17.8189L70.9879 17.2441L72.9997 14.9449L74.7241 14.3701L77.8855 13.7953H80.1847L80.4721 14.6575L77.3107 19.5433L73.2871 20.6929H69.5508H64.3776L60.354 17.8189Z" fill="#BDD2EB"/>
<path d="M61.1784 36.6672C60.8885 37.1132 60.7993 37.6037 60.8105 38.1277C60.8328 39.0307 60.7101 39.9449 60.8439 40.8256C60.9777 41.7175 60.9777 42.5648 60.8439 43.4678C60.699 44.4711 60.8105 45.508 60.8105 46.5336C60.8105 46.9238 60.9554 47.2694 61.0892 47.6373C61.2787 48.1055 61.6912 47.8826 61.9811 47.9829C63.0513 48.3397 64.1327 48.7076 65.2587 48.8748C67.3881 49.1981 69.5286 49.3542 71.6802 49.1423C73.0069 49.0086 74.3335 48.8525 75.6268 48.5069C76.4294 48.2951 77.1875 47.8826 78.0348 47.8491C78.3581 47.3028 78.425 46.712 78.4027 46.0988C78.3804 45.1735 78.4808 44.237 78.3693 43.3229C78.2801 42.5759 78.2912 41.8736 78.3693 41.1266C78.4808 40.0229 78.3916 38.8858 78.4027 37.7709C78.4027 37.3584 78.2355 37.0128 78.0348 36.6784" stroke="#020140" stroke-width="0.287402" stroke-linecap="round" stroke-linejoin="round"/>
<path d="M61.1794 31.2706C60.8895 31.7166 60.8003 32.2071 60.8115 32.7311C60.8338 33.6118 60.8115 34.4814 60.8115 35.3621C60.8226 36.2651 61.0567 36.4881 61.904 36.7557C63.2195 37.1793 64.5462 37.5806 65.9174 37.7702C66.5975 37.8594 67.2776 37.9708 67.9576 37.982C69.5853 38.0154 71.2241 38.0712 72.8518 37.8371C73.8328 37.7033 74.825 37.5583 75.7727 37.2573C76.3078 37.0901 76.8206 36.856 77.378 36.7445C78.0804 36.6107 78.3591 36.3209 78.3925 35.5851C78.4371 34.4702 78.4148 33.3442 78.3925 32.2294C78.3925 31.8838 78.2365 31.5716 78.0358 31.2818" stroke="#020140" stroke-width="0.287402" stroke-linecap="round" stroke-linejoin="round"/>
<path d="M61.245 31.1935C62.5605 31.4165 63.7868 32.0185 65.1135 32.2192C67.3655 32.5536 69.6175 32.6317 71.9029 32.4756C73.9542 32.3418 75.8494 31.6841 77.8116 31.2604C78.3467 31.1489 78.5919 29.878 78.1683 29.3763C77.6555 28.752 76.942 28.451 76.2062 28.2057C74.5228 27.626 72.7836 27.4365 71.0222 27.3362C70.8995 27.3362 70.7657 27.3696 70.6543 27.3362C69.5283 26.8568 68.4134 27.3808 67.2986 27.4031C66.1726 27.4365 65.0354 27.6149 63.9429 27.9159C63.352 28.0831 62.75 28.2503 62.1926 28.5068C60.799 29.1534 60.5538 29.8 61.1669 31.2047" stroke="#020140" stroke-width="0.287402" stroke-linecap="round" stroke-linejoin="round"/>
<path d="M69.5735 13.8237V17.8818C70.4542 17.6365 71.1677 17.2463 71.6806 16.5997C73.219 14.671 75.2592 13.7903 77.6784 13.7791C78.4588 13.7791 79.2503 13.5896 80.0307 14.0244C80.3652 14.2139 80.4098 14.3812 80.3652 14.6376C80.1757 15.7524 79.5625 16.6777 78.9047 17.5585C77.6784 19.1973 76.0396 20.1895 74.0217 20.5574C72.9292 20.7581 71.8032 20.8138 70.7441 20.5908C69.7407 20.379 68.782 20.5351 67.812 20.6354C64.1442 21.0145 61.1899 19.4314 59.4953 16.321C59.1497 15.6855 58.7149 15.0724 58.8264 14.2808" stroke="#020140" stroke-width="0.287402" stroke-linecap="round" stroke-linejoin="round"/>
<path d="M69.6397 1.77248C68.7144 2.11808 68.3354 2.98766 67.9006 3.74576C67.109 5.13931 66.6854 6.6555 66.808 8.26088C66.9529 10.2341 67.7779 11.951 69.0711 13.4338C69.4613 13.8797 70.0522 13.7348 70.5093 13.0659C71.2674 11.9733 71.9029 10.8139 72.1927 9.49835C72.7947 6.78928 71.9809 4.41466 70.3532 2.28531C70.0634 1.90626 69.4836 1.73904 69.5951 1.10358" stroke="#020140" stroke-width="0.287402" stroke-linecap="round" stroke-linejoin="round"/>
<path d="M22.114 26.0874C21.8576 25.6749 21.3782 25.5412 21.0103 25.2959C19.5053 24.3148 19.2823 22.1186 20.7985 20.9034C21.1776 20.5913 21.6235 20.4017 22.114 20.4017C22.6046 20.4017 23.084 20.3571 23.4964 20.0896C23.7417 19.9223 23.9089 20.0115 24.0873 20.1119C24.6001 20.3794 25.1353 20.4017 25.6927 20.4017C28.5355 20.4017 31.3895 20.4017 34.2324 20.4017C34.3104 20.4017 34.3885 20.424 34.4554 20.4017C35.3807 20.1119 36.2837 20.2568 37.2313 20.3683C38.7698 20.5467 39.461 21.2267 39.762 22.2412C40.0519 23.2557 39.9181 24.3929 38.7698 25.2402C38.3796 25.53 37.9225 25.7307 37.5992 26.1097" stroke="#020140" stroke-width="0.287402" stroke-linecap="round" stroke-linejoin="round"/>
<path d="M39.1277 8.0495C38.9827 8.79645 39.529 9.37616 39.5847 10.0897C39.83 13.0106 39.3283 15.6527 37.0875 17.7598C36.4632 18.3507 35.8723 18.9973 35.8389 19.9449" stroke="#020140" stroke-width="0.287402" stroke-linecap="round" stroke-linejoin="round"/>
<path d="M20.5085 8.27179C20.4639 8.43902 20.5866 8.59509 20.5085 8.78462C19.4383 11.8616 19.94 14.671 22.0359 17.1794C22.3926 17.603 22.7494 18.0267 23.1284 18.4169C23.552 18.8517 23.7193 19.3645 23.7081 19.9554" stroke="#020140" stroke-width="0.287402" stroke-linecap="round" stroke-linejoin="round"/>
<path d="M69.5741 20.3124C69.5741 19.532 69.563 18.7516 69.6187 17.8709C68.0357 17.5922 67.3222 16.0537 66.0847 15.1841C64.7803 14.2811 63.3533 13.7571 61.7702 13.746C60.8115 13.746 59.797 13.5007 58.9162 14.1696C58.7825 14.27 58.6598 14.0024 58.4814 14.0693" stroke="#020140" stroke-width="0.287402" stroke-linecap="round" stroke-linejoin="round"/>
<path d="M39.4959 53.7572C39.1949 54.2031 39.1168 54.6936 39.128 55.2176C39.1503 56.1429 39.128 57.0682 39.128 57.9936C39.1391 58.8966 39.3732 59.1642 40.2205 59.3871C41.2016 59.6324 42.1269 60.0337 43.1414 60.2121C44.312 60.4128 45.4714 60.6023 46.6532 60.6246C48.1917 60.6469 49.7301 60.6915 51.2463 60.4797C52.2274 60.3459 53.2085 60.1787 54.1672 59.9C54.7023 59.7439 55.2152 59.4986 55.7726 59.3871C56.4972 59.2422 56.7648 58.93 56.7871 58.1496C56.8205 57.0348 56.7871 55.9088 56.7871 54.794C56.7871 54.3815 56.5307 54.0693 56.4192 53.7014" stroke="#020140" stroke-width="0.287402" stroke-linecap="round" stroke-linejoin="round"/>
<path d="M69.6418 20.5352C69.4968 22.6757 69.5972 24.8162 69.5637 26.9567" stroke="#020140" stroke-width="0.287402" stroke-linecap="round" stroke-linejoin="round"/>
<path d="M20.6543 8.56126C21.2675 8.59471 21.7691 8.85112 22.2708 9.20787C23.3188 9.96597 24.3556 10.7575 25.5485 11.2592C26.5184 11.6605 27.0201 11.4264 27.5886 10.4676C28.0903 9.60922 28.5139 8.70619 29.116 7.90351C29.3055 7.64709 29.5173 7.42412 29.7849 7.2569" stroke="#020140" stroke-width="0.287402" stroke-linecap="round" stroke-linejoin="round"/>
<path d="M38.9831 8.56124C38.4479 8.55009 38.0131 8.77306 37.6006 9.07407C36.5192 9.84331 35.4713 10.6571 34.245 11.1923C33.0521 11.7051 32.517 11.3706 32.1156 10.5457C31.7589 9.80987 31.3575 9.09637 30.9004 8.41631M30.9004 8.41631C30.8224 8.29368 31.0231 8.4832 30.9004 8.41631Z" stroke="#020140" stroke-width="0.287402" stroke-linecap="round" stroke-linejoin="round"/>
<line x1="78.748" y1="59.6358" x2="87.9449" y2="59.6358" stroke="#020140" stroke-width="0.287402"/>
</g>
<defs>
<clipPath id="clip0_1195_31806">
<rect width="75.9097" height="73" fill="white" transform="translate(6.89746)"/>
</clipPath>
</defs>
</svg>
