<svg width="24" height="24" viewBox="0 0 24 24" fill="none" xmlns="http://www.w3.org/2000/svg">
<mask id="mask0_1195_13417" style="mask-type:alpha" maskUnits="userSpaceOnUse" x="0" y="0" width="24" height="24">
<rect width="24" height="24" fill="#D9D9D9"/>
</mask>
<g mask="url(#mask0_1195_13417)">
<path d="M6.87036 18.978C6.61766 19.0382 6.39805 18.975 6.21154 18.7885C6.02502 18.6019 5.96185 18.3823 6.02201 18.1296L6.74401 14.6821L10.3179 18.256L6.87036 18.978ZM10.3179 18.256L6.74401 14.6821L15.0109 6.41515C15.2877 6.13838 15.6307 6 16.0398 6C16.4489 6 16.7919 6.13838 17.0686 6.41515L18.5848 7.93136C18.8616 8.20812 19 8.55107 19 8.96021C19 9.36934 18.8616 9.71229 18.5848 9.98906L10.3179 18.256ZM16.0398 7.42595L8.56707 14.8987L10.1013 16.4329L17.574 8.96021L16.0398 7.42595Z" fill="white"/>
</g>
</svg>
