<svg width="24" height="24" viewBox="0 0 24 24" fill="none" xmlns="http://www.w3.org/2000/svg">
<g clip-path="url(#clip0_1122_28196)">
<path d="M18.7778 20.3077C18.7778 17.8595 17.8413 15.5116 16.1743 13.7805C14.5073 12.0494 12.2464 11.0769 9.88889 11.0769C7.53141 11.0769 5.27049 12.0494 3.6035 13.7805C1.93651 15.5116 1 17.8595 1 20.3077" stroke="#020140" stroke-width="1.5" stroke-linecap="round"/>
<path d="M9.88965 0.75C11.9036 0.75 13.5839 2.45358 13.584 4.61523C13.584 6.77696 11.9036 8.48047 9.88965 8.48047C7.87574 8.48041 6.19531 6.77692 6.19531 4.61523C6.19539 2.45362 7.87578 0.750061 9.88965 0.75Z" stroke="#020140" stroke-width="1.5"/>
<circle cx="16.668" cy="17.1534" r="6.35" fill="#A2EDA2" stroke="white" stroke-width="1.3"/>
<path d="M14.9878 17.5272L16.0675 18.9668C16.2079 19.154 16.4991 19.1155 16.586 18.8982L18.2545 14.7272" stroke="#020140" stroke-width="1.5" stroke-linecap="round"/>
</g>
<defs>
<clipPath id="clip0_1122_28196">
<rect width="24" height="24" fill="white"/>
</clipPath>
</defs>
</svg>
