<svg width="178" height="180" viewBox="0 0 178 180" fill="none" xmlns="http://www.w3.org/2000/svg">
  <!-- Person at laptop - simplified illustration -->
  <ellipse cx="90" cy="150" rx="50" ry="12" fill="#E1E9F3"/>
  <rect x="50" y="80" width="80" height="60" rx="4" fill="#f0f5fb" stroke="#020140" stroke-width="1"/>
  <rect x="55" y="85" width="70" height="45" rx="2" fill="#dee9f5"/>
  <rect x="65" y="100" width="50" height="25" fill="#b8d3ee"/>
  <circle cx="90" cy="55" r="20" fill="#f0f5fb" stroke="#020140" stroke-width="1"/>
  <path d="M70 95 L90 75 L110 95 L90 115 Z" fill="#dee9f5" stroke="#020140" stroke-width="1"/>
  <!-- Thought bubble with heart -->
  <path d="M120 45 Q130 35 140 45 Q135 55 120 55 Q110 50 110 45 Q110 40 120 45 Z" fill="white" stroke="#020140" stroke-width="1"/>
  <path d="M125 48 C125 46 127 44 130 44 C132 44 133 46 133 48 C133 50 130 52 130 52 C130 52 127 50 125 48 Z" fill="#020140"/>
</svg>
