<svg width="37" height="44" viewBox="0 0 37 44" fill="none" xmlns="http://www.w3.org/2000/svg">
<path d="M12.8941 32.9053L9.23242 38.0005H27.9132L24.2565 32.9053H12.8941Z" fill="#020140"/>
<path d="M13.207 26.958V32.0583H17.578V29.5333C17.578 29.0253 17.9904 28.6128 18.4984 28.6128C19.0064 28.6128 19.4189 29.0253 19.4189 29.5333V32.0583H23.7999V26.958H13.207Z" fill="#020140"/>
<path d="M24.1649 20.9434V21.9242H22.9376V20.9434H20.8452V21.9242H19.6179V20.9434H17.5255V21.9242H16.2982V20.9434H14.2108V21.9242H12.9785V20.9434H10.5894L13.2552 26.0386H23.8933L26.5591 20.9434H24.1649Z" fill="#020140"/>
<path d="M23.8515 14.9639H13.2637L14.3652 17.0613V20.0591H22.755V17.0613L23.8515 14.9639Z" fill="#020140"/>
<path d="M22.1897 8.9834H14.9316V14.0837H22.1897V8.9834Z" fill="#020140"/>
<path d="M22.4954 6V6.98082H21.263V6H19.1757V6.98082H17.9484V6H15.856V6.98082H14.6287V6H12.5312L13.6278 8.09745H23.4963L24.5928 6H22.4954Z" fill="#020140"/>
</svg>
